  0
SECTION
  2
HEADER
  9
$ACADVER
  1
AC1027
  9
$ACADMAINTVER
 70
    67
  9
$DWGCODEPAGE
  3
ANSI_1252
  9
$LASTSAVEDBY
  1
niklas
  9
$REQUIREDVERSIONS
160
                 0
  9
$INSBASE
 10
0.0
 20
0.0
 30
0.0
  9
$EXTMIN
 10
-72.72767900000001
 20
-72.74754699999999
 30
0.0
  9
$EXTMAX
 10
72.75003100000001
 20
72.74754699999997
 30
0.0
  9
$LIMMIN
 10
0.0
 20
0.0
  9
$LIMMAX
 10
12.0
 20
9.0
  9
$ORTHOMODE
 70
     0
  9
$REGENMODE
 70
     1
  9
$FILLMODE
 70
     1
  9
$QTEXTMODE
 70
     0
  9
$MIRRTEXT
 70
     0
  9
$LTSCALE
 40
1.0
  9
$ATTMODE
 70
     1
  9
$TEXTSIZE
 40
2.5
  9
$TRACEWID
 40
0.05
  9
$TEXTSTYLE
  7
STANDARD
  9
$CLAYER
  8
0
  9
$CELTYPE
  6
CONTINUOUS
  9
$CECOLOR
 62
   256
  9
$CELTSCALE
 40
1.0
  9
$DISPSILH
 70
     0
  9
$DIMSCALE
 40
1.0
  9
$DIMASZ
 40
0.18
  9
$DIMEXO
 40
0.0625
  9
$DIMDLI
 40
0.38
  9
$DIMRND
 40
0.0
  9
$DIMDLE
 40
0.0
  9
$DIMEXE
 40
0.18
  9
$DIMTP
 40
0.0
  9
$DIMTM
 40
0.0
  9
$DIMTXT
 40
0.18
  9
$DIMCEN
 40
0.09
  9
$DIMTSZ
 40
0.0
  9
$DIMTOL
 70
     0
  9
$DIMLIM
 70
     0
  9
$DIMTIH
 70
     1
  9
$DIMTOH
 70
     1
  9
$DIMSE1
 70
     0
  9
$DIMSE2
 70
     0
  9
$DIMTAD
 70
     0
  9
$DIMZIN
 70
     0
  9
$DIMBLK
  1

  9
$DIMASO
 70
     1
  9
$DIMSHO
 70
     1
  9
$DIMPOST
  1

  9
$DIMAPOST
  1

  9
$DIMALT
 70
     0
  9
$DIMALTD
 70
     2
  9
$DIMALTF
 40
25.4
  9
$DIMLFAC
 40
1.0
  9
$DIMTOFL
 70
     0
  9
$DIMTVP
 40
0.0
  9
$DIMTIX
 70
     0
  9
$DIMSOXD
 70
     0
  9
$DIMSAH
 70
     0
  9
$DIMBLK1
  1

  9
$DIMBLK2
  1

  9
$DIMSTYLE
  2
ISO-25
  9
$DIMCLRD
 70
     0
  9
$DIMCLRE
 70
     0
  9
$DIMCLRT
 70
     0
  9
$DIMTFAC
 40
1.0
  9
$DIMGAP
 40
0.09
  9
$DIMJUST
 70
     0
  9
$DIMSD1
 70
     0
  9
$DIMSD2
 70
     0
  9
$DIMTOLJ
 70
     1
  9
$DIMTZIN
 70
     0
  9
$DIMALTZ
 70
     0
  9
$DIMALTTZ
 70
     0
  9
$DIMUPT
 70
     0
  9
$DIMDEC
 70
     4
  9
$DIMTDEC
 70
     4
  9
$DIMALTU
 70
     2
  9
$DIMALTTD
 70
     2
  9
$DIMTXSTY
  7
STANDARD
  9
$DIMAUNIT
 70
     0
  9
$DIMADEC
 70
     0
  9
$DIMALTRND
 40
0.0
  9
$DIMAZIN
 70
     0
  9
$DIMDSEP
 70
    46
  9
$DIMATFIT
 70
     3
  9
$DIMFRAC
 70
     0
  9
$DIMLDRBLK
  1

  9
$DIMLUNIT
 70
     2
  9
$DIMLWD
 70
    -2
  9
$DIMLWE
 70
    -2
  9
$DIMTMOVE
 70
     0
  9
$DIMFXL
 40
1.0
  9
$DIMFXLON
 70
     0
  9
$DIMJOGANG
 40
0.7853981633974483
  9
$DIMTFILL
 70
     0
  9
$DIMTFILLCLR
 70
     0
  9
$DIMARCSYM
 70
     0
  9
$DIMLTYPE
  6

  9
$DIMLTEX1
  6

  9
$DIMLTEX2
  6

  9
$DIMTXTDIRECTION
 70
     0
  9
$LUNITS
 70
     2
  9
$LUPREC
 70
     4
  9
$SKETCHINC
 40
0.1
  9
$FILLETRAD
 40
0.0
  9
$AUNITS
 70
     0
  9
$AUPREC
 70
     0
  9
$MENU
  1
.
  9
$ELEVATION
 40
0.0
  9
$PELEVATION
 40
0.0
  9
$THICKNESS
 40
0.0
  9
$LIMCHECK
 70
     0
  9
$CHAMFERA
 40
0.0
  9
$CHAMFERB
 40
0.0
  9
$CHAMFERC
 40
0.0
  9
$CHAMFERD
 40
0.0
  9
$SKPOLY
 70
     0
  9
$TDCREATE
 40
2456871.559507245
  9
$TDUCREATE
 40
2456871.476173912
  9
$TDUPDATE
 40
2456891.664730810
  9
$TDUUPDATE
 40
2456891.581397477
  9
$TDINDWG
 40
0.9631406481
  9
$TDUSRTIMER
 40
0.9631406481
  9
$USRTIMER
 70
     1
  9
$ANGBASE
 50
0.0
  9
$ANGDIR
 70
     0
  9
$PDMODE
 70
     0
  9
$PDSIZE
 40
0.0
  9
$PLINEWID
 40
0.0
  9
$SPLFRAME
 70
     0
  9
$SPLINETYPE
 70
     6
  9
$SPLINESEGS
 70
     8
  9
$HANDSEED
  5
1021F
  9
$SURFTAB1
 70
     6
  9
$SURFTAB2
 70
     6
  9
$SURFTYPE
 70
     6
  9
$SURFU
 70
     6
  9
$SURFV
 70
     6
  9
$UCSBASE
  2

  9
$UCSNAME
  2

  9
$UCSORG
 10
0.0
 20
0.0
 30
0.0
  9
$UCSXDIR
 10
1.0
 20
0.0
 30
0.0
  9
$UCSYDIR
 10
0.0
 20
1.0
 30
0.0
  9
$UCSORTHOREF
  2

  9
$UCSORTHOVIEW
 70
     0
  9
$UCSORGTOP
 10
0.0
 20
0.0
 30
0.0
  9
$UCSORGBOTTOM
 10
0.0
 20
0.0
 30
0.0
  9
$UCSORGLEFT
 10
0.0
 20
0.0
 30
0.0
  9
$UCSORGRIGHT
 10
0.0
 20
0.0
 30
0.0
  9
$UCSORGFRONT
 10
0.0
 20
0.0
 30
0.0
  9
$UCSORGBACK
 10
0.0
 20
0.0
 30
0.0
  9
$PUCSBASE
  2

  9
$PUCSNAME
  2

  9
$PUCSORG
 10
0.0
 20
0.0
 30
0.0
  9
$PUCSXDIR
 10
1.0
 20
0.0
 30
0.0
  9
$PUCSYDIR
 10
0.0
 20
1.0
 30
0.0
  9
$PUCSORTHOREF
  2

  9
$PUCSORTHOVIEW
 70
     0
  9
$PUCSORGTOP
 10
0.0
 20
0.0
 30
0.0
  9
$PUCSORGBOTTOM
 10
0.0
 20
0.0
 30
0.0
  9
$PUCSORGLEFT
 10
0.0
 20
0.0
 30
0.0
  9
$PUCSORGRIGHT
 10
0.0
 20
0.0
 30
0.0
  9
$PUCSORGFRONT
 10
0.0
 20
0.0
 30
0.0
  9
$PUCSORGBACK
 10
0.0
 20
0.0
 30
0.0
  9
$USERI1
 70
     0
  9
$USERI2
 70
     0
  9
$USERI3
 70
     0
  9
$USERI4
 70
     0
  9
$USERI5
 70
     0
  9
$USERR1
 40
0.0
  9
$USERR2
 40
0.0
  9
$USERR3
 40
0.0
  9
$USERR4
 40
0.0
  9
$USERR5
 40
0.0
  9
$WORLDVIEW
 70
     1
  9
$SHADEDGE
 70
     3
  9
$SHADEDIF
 70
    70
  9
$TILEMODE
 70
     1
  9
$MAXACTVP
 70
    64
  9
$PINSBASE
 10
0.0
 20
0.0
 30
0.0
  9
$PLIMCHECK
 70
     0
  9
$PEXTMIN
 10
1.000000000000000E+20
 20
1.000000000000000E+20
 30
1.000000000000000E+20
  9
$PEXTMAX
 10
-1.000000000000000E+20
 20
-1.000000000000000E+20
 30
-1.000000000000000E+20
  9
$PLIMMIN
 10
0.0
 20
0.0
  9
$PLIMMAX
 10
12.0
 20
9.0
  9
$UNITMODE
 70
     0
  9
$VISRETAIN
 70
     1
  9
$PLINEGEN
 70
     0
  9
$PSLTSCALE
 70
     1
  9
$TREEDEPTH
 70
  3020
  9
$CMLSTYLE
  2
Standard
  9
$CMLJUST
 70
     0
  9
$CMLSCALE
 40
1.0
  9
$PROXYGRAPHICS
 70
     1
  9
$MEASUREMENT
 70
     1
  9
$CELWEIGHT
370
    -1
  9
$ENDCAPS
280
     0
  9
$JOINSTYLE
280
     0
  9
$LWDISPLAY
290
     0
  9
$INSUNITS
 70
     0
  9
$HYPERLINKBASE
  1

  9
$STYLESHEET
  1

  9
$XEDIT
290
     1
  9
$CEPSNTYPE
380
     0
  9
$PSTYLEMODE
290
     1
  9
$FINGERPRINTGUID
  2
{BBF5FC73-4FFB-4F4B-ACBE-0B71F8339473}
  9
$VERSIONGUID
  2
{FCA996C6-39B0-AF4E-A79B-3FDD2B6C9AEF}
  9
$EXTNAMES
290
     1
  9
$PSVPSCALE
 40
0.0
  9
$OLESTARTUP
290
     0
  9
$SORTENTS
280
   127
  9
$INDEXCTL
280
     0
  9
$HIDETEXT
280
     0
  9
$XCLIPFRAME
280
     2
  9
$HALOGAP
280
     0
  9
$OBSCOLOR
 70
   257
  9
$OBSLTYPE
280
     0
  9
$INTERSECTIONDISPLAY
280
     0
  9
$INTERSECTIONCOLOR
 70
   257
  9
$DIMASSOC
280
     1
  9
$PROJECTNAME
  1

  9
$CAMERADISPLAY
290
     0
  9
$LENSLENGTH
 40
50.0
  9
$CAMERAHEIGHT
 40
0.0
  9
$STEPSPERSEC
 40
2.0
  9
$STEPSIZE
 40
6.0
  9
$3DDWFPREC
 40
2.0
  9
$PSOLWIDTH
 40
0.25
  9
$PSOLHEIGHT
 40
4.0
  9
$LOFTANG1
 40
1.570796326794896
  9
$LOFTANG2
 40
1.570796326794896
  9
$LOFTMAG1
 40
0.0
  9
$LOFTMAG2
 40
0.0
  9
$LOFTPARAM
 70
     7
  9
$LOFTNORMALS
280
     1
  9
$LATITUDE
 40
37.795
  9
$LONGITUDE
 40
-122.394
  9
$NORTHDIRECTION
 40
0.0
  9
$TIMEZONE
 70
 -8000
  9
$LIGHTGLYPHDISPLAY
280
     1
  9
$TILEMODELIGHTSYNCH
280
     1
  9
$CMATERIAL
347
10004
  9
$SOLIDHIST
280
     0
  9
$SHOWHIST
280
     1
  9
$DWFFRAME
280
     2
  9
$DGNFRAME
280
     0
  9
$REALWORLDSCALE
290
     1
  9
$INTERFERECOLOR
 62
     1
  9
$INTERFEREOBJVS
345
10026
  9
$INTERFEREVPVS
346
10023
  9
$CSHADOW
280
     0
  9
$SHADOWPLANELOCATION
 40
0.0
  0
ENDSEC
  0
SECTION
  2
CLASSES
  0
CLASS
  1
ACDBDICTIONARYWDFLT
  2
AcDbDictionaryWithDefault
  3
ObjectDBX Classes
 90
        0
 91
        1
280
     0
281
     0
  0
CLASS
  1
MATERIAL
  2
AcDbMaterial
  3
ObjectDBX Classes
 90
     1153
 91
        3
280
     0
281
     0
  0
CLASS
  1
VISUALSTYLE
  2
AcDbVisualStyle
  3
ObjectDBX Classes
 90
     4095
 91
       24
280
     0
281
     0
  0
CLASS
  1
TABLESTYLE
  2
AcDbTableStyle
  3
ObjectDBX Classes
 90
     4095
 91
        1
280
     0
281
     0
  0
CLASS
  1
SCALE
  2
AcDbScale
  3
ObjectDBX Classes
 90
     1153
 91
       17
280
     0
281
     0
  0
CLASS
  1
MLEADERSTYLE
  2
AcDbMLeaderStyle
  3
ACDB_MLEADERSTYLE_CLASS
 90
     4095
 91
        1
280
     0
281
     0
  0
CLASS
  1
ACDBSECTIONVIEWSTYLE
  2
AcDbSectionViewStyle
  3
ObjectDBX Classes
 90
     1025
 91
        2
280
     0
281
     0
  0
CLASS
  1
ACDBDETAILVIEWSTYLE
  2
AcDbDetailViewStyle
  3
ObjectDBX Classes
 90
     1025
 91
        2
280
     0
281
     0
  0
CLASS
  1
DICTIONARYVAR
  2
AcDbDictionaryVar
  3
ObjectDBX Classes
 90
        0
 91
        9
280
     0
281
     0
  0
CLASS
  1
SORTENTSTABLE
  2
AcDbSortentsTable
  3
ObjectDBX Classes
 90
        0
 91
        1
280
     0
281
     0
  0
CLASS
  1
CELLSTYLEMAP
  2
AcDbCellStyleMap
  3
ObjectDBX Classes
 90
     1152
 91
        1
280
     0
281
     0
  0
ENDSEC
  0
SECTION
  2
TABLES
  0
TABLE
  2
VPORT
  5
8
330
0
100
AcDbSymbolTable
 70
     1
  0
VPORT
  5
2E
330
8
100
AcDbSymbolTableRecord
100
AcDbViewportTableRecord
  2
*ACTIVE
 70
     0
 10
0.0
 20
0.0
 11
1.0
 21
1.0
 12
7.848778805771303
 22
-4.893568604662164
 13
0.0
 23
0.0
 14
10.0
 24
10.0
 15
10.0
 25
10.0
 16
0.0
 26
0.0
 36
1.0
 17
0.0
 27
0.0
 37
0.0
 40
98.45891099872005
 41
1.394032921810699
 42
50.0
 43
0.0
 44
0.0
 50
0.0
 51
0.0
 71
     0
 72
   100
 73
     1
 74
     3
 75
     0
 76
     0
 77
     0
 78
     0
281
     0
 65
     1
110
0.0
120
0.0
130
0.0
111
1.0
121
0.0
131
0.0
112
0.0
122
1.0
132
0.0
 79
     0
146
0.0
348
10022
 60
     3
 61
     5
292
     1
282
     1
141
0.0
142
0.0
 63
   250
421
  3355443
1001
ACAD_NAV_VCDISPLAY
1070
     3
  0
ENDTAB
  0
TABLE
  2
LTYPE
  5
5
330
0
100
AcDbSymbolTable
 70
     2
  0
LTYPE
  5
14
330
5
100
AcDbSymbolTableRecord
100
AcDbLinetypeTableRecord
  2
BYBLOCK
 70
     0
  3

 72
    65
 73
     0
 40
0.0
  0
LTYPE
  5
15
330
5
100
AcDbSymbolTableRecord
100
AcDbLinetypeTableRecord
  2
BYLAYER
 70
     0
  3

 72
    65
 73
     0
 40
0.0
  0
LTYPE
  5
16
330
5
100
AcDbSymbolTableRecord
100
AcDbLinetypeTableRecord
  2
CONTINUOUS
 70
     0
  3
Solid line
 72
    65
 73
     0
 40
0.0
  0
ENDTAB
  0
TABLE
  2
LAYER
  5
2
102
{ACAD_XDICTIONARY
360
10069
102
}
330
0
100
AcDbSymbolTable
 70
     3
  0
LAYER
  5
50
102
{ACAD_XDICTIONARY
360
100A5
102
}
330
2
100
AcDbSymbolTableRecord
100
AcDbLayerTableRecord
  2
0
 70
     0
 62
     7
  6
CONTINUOUS
370
    -3
390
10002
347
10014
348
0
  0
LAYER
  5
101AB
330
2
100
AcDbSymbolTableRecord
100
AcDbLayerTableRecord
  2
Reference
 70
     0
 62
     7
  6
CONTINUOUS
370
    -3
390
10002
347
10014
348
0
1001
AcAecLayerStandard
1000

1000

1001
AcCmTransparency
1071
        0
  0
LAYER
  5
10204
330
2
100
AcDbSymbolTableRecord
100
AcDbLayerTableRecord
  2
afterthought
 70
     0
 62
     7
  6
CONTINUOUS
370
    -3
390
10002
347
10014
348
0
1001
AcAecLayerStandard
1000

1000

1001
AcCmTransparency
1071
        0
  0
ENDTAB
  0
TABLE
  2
STYLE
  5
3
330
0
100
AcDbSymbolTable
 70
     1
  0
STYLE
  5
11
330
3
100
AcDbSymbolTableRecord
100
AcDbTextStyleTableRecord
  2
STANDARD
 70
     0
 40
0.0
 41
1.0
 50
0.0
 71
     0
 42
2.5
  3
txt
  4

  0
ENDTAB
  0
TABLE
  2
VIEW
  5
6
330
0
100
AcDbSymbolTable
 70
     2
  0
ENDTAB
  0
TABLE
  2
UCS
  5
7
330
0
100
AcDbSymbolTable
 70
     0
  0
ENDTAB
  0
TABLE
  2
APPID
  5
9
330
0
100
AcDbSymbolTable
 70
     8
  0
APPID
  5
12
330
9
100
AcDbSymbolTableRecord
100
AcDbRegAppTableRecord
  2
ACAD
 70
     0
  0
APPID
  5
10057
330
9
100
AcDbSymbolTableRecord
100
AcDbRegAppTableRecord
  2
ACAD_NAV_VCDISPLAY
 70
     0
  0
APPID
  5
10058
330
9
100
AcDbSymbolTableRecord
100
AcDbRegAppTableRecord
  2
ACAD_EXEMPT_FROM_CAD_STANDARDS
 70
     0
  0
APPID
  5
10065
330
9
100
AcDbSymbolTableRecord
100
AcDbRegAppTableRecord
  2
AcadAnnotative
 70
     0
  0
APPID
  5
10066
330
9
100
AcDbSymbolTableRecord
100
AcDbRegAppTableRecord
  2
ACAD_DSTYLE_DIMJAG
 70
     0
  0
APPID
  5
10067
330
9
100
AcDbSymbolTableRecord
100
AcDbRegAppTableRecord
  2
ACAD_DSTYLE_DIMTALN
 70
     0
  0
APPID
  5
101AC
330
9
100
AcDbSymbolTableRecord
100
AcDbRegAppTableRecord
  2
AcAecLayerStandard
 70
     0
  0
APPID
  5
101AD
330
9
100
AcDbSymbolTableRecord
100
AcDbRegAppTableRecord
  2
AcCmTransparency
 70
     0
  0
ENDTAB
  0
TABLE
  2
DIMSTYLE
  5
A
330
0
100
AcDbSymbolTable
 70
     4
100
AcDbDimStyleTable
 71
     1
340
27
  0
DIMSTYLE
105
27
330
A
100
AcDbSymbolTableRecord
100
AcDbDimStyleTableRecord
  2
ISO-25
 70
     0
 41
2.5
 42
0.625
 43
3.75
 44
1.25
 73
     0
 74
     0
 77
     1
 78
     8
140
2.5
141
2.5
143
0.03937007874016
147
0.625
171
     3
172
     1
271
     2
272
     2
274
     3
283
     0
284
     8
340
11
  0
DIMSTYLE
105
10063
330
A
100
AcDbSymbolTableRecord
100
AcDbDimStyleTableRecord
  2
Standard
 70
     0
340
11
  0
DIMSTYLE
105
10064
330
A
100
AcDbSymbolTableRecord
100
AcDbDimStyleTableRecord
  2
Annotative
 70
     0
 40
0.0
340
11
1001
AcadAnnotative
1000
AnnotativeData
1002
{
1070
     1
1070
     1
1002
}
1001
ACAD_DSTYLE_DIMJAG
1070
   388
1040
1.5
1001
ACAD_DSTYLE_DIMTALN
1070
   392
1070
     0
  0
ENDTAB
  0
TABLE
  2
BLOCK_RECORD
  5
1
330
0
100
AcDbSymbolTable
 70
     2
  0
BLOCK_RECORD
  5
1F
330
1
100
AcDbSymbolTableRecord
100
AcDbBlockTableRecord
  2
*MODEL_SPACE
340
10052
 70
     0
280
     1
281
     0
  0
BLOCK_RECORD
  5
1B
330
1
100
AcDbSymbolTableRecord
100
AcDbBlockTableRecord
  2
*PAPER_SPACE
340
10053
 70
     0
280
     1
281
     0
  0
ENDTAB
  0
ENDSEC
  0
SECTION
  2
BLOCKS
  0
BLOCK
  5
20
330
1F
100
AcDbEntity
  8
0
100
AcDbBlockBegin
  2
*MODEL_SPACE
 70
     0
 10
0.0
 20
0.0
 30
0.0
  3
*MODEL_SPACE
  1

  0
ENDBLK
  5
21
330
1F
100
AcDbEntity
  8
0
100
AcDbBlockEnd
  0
BLOCK
  5
1C
330
1B
100
AcDbEntity
 67
     1
  8
0
100
AcDbBlockBegin
  2
*PAPER_SPACE
 70
     0
 10
0.0
 20
0.0
 30
0.0
  3
*PAPER_SPACE
  1

  0
ENDBLK
  5
1D
330
1B
100
AcDbEntity
 67
     1
  8
0
100
AcDbBlockEnd
  0
ENDSEC
  0
SECTION
  2
ENTITIES
  0
LWPOLYLINE
  5
104
102
{ACAD_REACTORS
330
1005F
102
}
330
1F
100
AcDbEntity
  8
0
 62
     7
100
AcDbPolyline
 90
     1331
 70
     0
 43
0.0
 10
69.73067599999999
 20
1.641517000000021
 10
70.33463199999999
 20
1.47037800000001
 10
70.938446
 20
1.280046999999996
 10
71.54197899999999
 20
1.071653999999966
 10
72.14503099999999
 20
0.8460739999999873
 10
72.747491
 20
0.6040679999999839
 10
72.75003100000001
 20
0.0
 10
72.747491
 20
-0.6040679999999839
 10
72.14503099999999
 20
-0.8460739999999873
 10
71.54197899999999
 20
-1.071653999999995
 10
70.938446
 20
-1.280046999999996
 10
70.33463199999999
 20
-1.47037800000001
 10
69.73067599999999
 20
-1.641516999999993
 10
69.71185199999999
 20
-2.306179000000014
 10
69.68670599999999
 20
-2.97061499999998
 10
70.27804599999999
 20
-3.181294000000008
 10
70.86794699999998
 20
-3.411107000000015
 10
71.45638099999999
 20
-3.658954999999991
 10
72.04323299999998
 20
-3.923877000000004
 10
72.62836499999997
 20
-4.205167999999986
 10
72.59094199999998
 20
-4.808078999999992
 10
72.54852399999998
 20
-5.410680000000013
 10
71.931389
 20
-5.612356000000005
 10
71.31473299999999
 20
-5.797550000000001
 10
70.69875500000001
 20
-5.96561299999999
 10
70.08367999999999
 20
-6.115613999999993
 10
69.46973399999999
 20
-6.246481000000017
 10
69.40702399999998
 20
-6.908433000000002
 10
69.338021
 20
-7.569763999999992
 10
69.91412099999999
 20
-7.819051000000001
 10
70.48756799999998
 20
-8.087360000000018
 10
71.058334
 20
-8.373533000000008
 10
71.62636299999997
 20
-8.676668000000006
 10
72.191654
 20
-8.996031000000016
 10
72.11446599999999
 20
-9.595160000000021
 10
72.03231099999999
 20
-10.193613
 10
71.40318199999999
 20
-10.35405600000001
 10
70.775632
 20
-10.49810199999999
 10
70.14991699999999
 20
-10.625102
 10
69.52626299999997
 20
-10.734125
 10
68.90500700000001
 20
-10.82409699999999
 10
68.79869399999998
 20
-11.48046100000002
 10
68.68614399999998
 20
-12.13581000000002
 10
69.24449199999997
 20
-12.42263199999999
 10
69.798946
 20
-12.72825
 10
70.34956099999999
 20
-13.05150800000001
 10
70.89633899999999
 20
-13.39152899999999
 10
71.43924999999999
 20
-13.74755200000001
 10
71.32263499999999
 20
-14.34027599999999
 10
71.20111099999999
 20
-14.931983
 10
70.56278
 20
-15.05051599999999
 10
69.927075
 20
-15.15276499999998
 10
69.29433299999999
 20
-15.23810900000001
 10
68.66483600000001
 20
-15.30567299999998
 10
68.03898000000001
 20
-15.35441299999999
 10
67.88954299999997
 20
-16.00231000000002
 10
67.73389799999998
 20
-16.64876899999998
 10
68.27209499999998
 20
-16.971857
 10
68.80512899999999
 20
-17.31345799999999
 10
69.33316599999997
 20
-17.67241699999999
 10
69.85626499999998
 20
-18.04782900000001
 10
70.374482
 20
-18.438961
 10
70.21894899999998
 20
-19.02265299999999
 10
70.058562
 20
-19.605075
 10
69.41379699999998
 20
-19.68113400000001
 10
68.772729
 20
-19.74116199999997
 10
68.135726
 20
-19.78448299999999
 10
67.50312499999998
 20
-19.81033500000001
 10
66.87546199999997
 20
-19.817588
 10
66.68349499999999
 20
-20.454197
 10
66.48548799999997
 20
-21.088943
 10
67.001136
 20
-21.44691299999999
 10
67.510434
 20
-21.823003
 10
68.01360800000001
 20
-22.21605400000001
 10
68.51074299999999
 20
-22.62521899999999
 10
69.00197900000001
 20
-23.04973799999999
 10
68.80820499999998
 20
-23.62188699999999
 10
68.60968999999997
 20
-24.19242800000001
 10
67.961284
 20
-24.22570200000001
 10
67.31767600000001
 20
-24.24322800000002
 10
66.67917699999998
 20
-24.24435600000001
 10
66.04626499999998
 20
-24.22832600000001
 10
65.41947799999999
 20
-24.19409299999998
 10
65.18588299999999
 20
-24.81661800000001
 10
64.94633200000001
 20
-25.43688600000002
 10
65.43720099999998
 20
-25.828159
 10
65.920535
 20
-26.23707099999999
 10
66.396616
 20
-26.66254900000001
 10
66.86564099999998
 20
-27.10366299999999
 10
67.327752
 20
-27.55970600000001
 10
67.096583
 20
-28.11782800000001
 10
66.86078699999999
 20
-28.67397500000001
 10
66.21161899999998
 20
-28.66432299999999
 10
65.56823699999998
 20
-28.63928999999999
 10
64.93106399999999
 20
-28.59822700000001
 10
64.30060800000001
 20
-28.54040000000001
 10
63.67746099999999
 20
-28.46479199999999
 10
63.403198
 20
-29.070526
 10
63.12320499999998
 20
-29.67363500000002
 10
63.58714999999998
 20
-30.09646000000001
 10
64.04240300000001
 20
-30.53644399999999
 10
64.48930200000001
 20
-30.99243100000001
 10
64.928157
 20
-31.46360100000001
 10
65.35911100000001
 20
-31.94919199999998
 10
65.09156399999998
 20
-32.49077700000001
 10
64.81952999999998
 20
-33.03016000000003
 10
64.17242299999998
 20
-32.97763799999998
 10
63.53208899999998
 20
-32.91010299999999
 10
62.89903599999999
 20
-32.827045
 10
62.27377299999997
 20
-32.72767400000001
 10
61.65697599999998
 20
-32.61106000000001
 10
61.343286
 20
-33.19731999999999
 10
61.02403599999999
 20
-33.78058899999999
 10
61.459025
 20
-34.23318899999998
 10
61.88419299999998
 20
-34.70227
 10
62.29999099999997
 20
-35.18681799999999
 10
62.70675800000001
 20
-35.68592799999999
 10
63.10466299999998
 20
-36.19895099999999
 10
62.801895
 20
-36.72168300000001
 10
62.49483699999998
 20
-37.24190300000001
 10
61.85258400000001
 20
-37.14671000000001
 10
61.21814899999998
 20
-37.03703799999999
 10
60.59195399999999
 20
-36.912296
 10
59.97462099999999
 20
-36.771806
 10
59.366884
 20
-36.61469299999999
 10
59.01515
 20
-37.178968
 10
58.65805399999999
 20
-37.739856
 10
59.06216799999999
 20
-38.22019800000001
 10
59.45541699999998
 20
-38.71637300000001
 10
59.838279
 20
-39.22733699999998
 10
60.211151
 20
-39.75224199999999
 10
60.57428699999997
 20
-40.29043999999998
 10
60.23765199999999
 20
-40.792033
 10
59.89684099999999
 20
-41.29080400000001
 10
59.26231999999998
 20
-41.15339
 10
58.63649299999997
 20
-41.00200599999999
 10
58.01992199999998
 20
-40.83614399999999
 10
57.413229
 20
-40.65518400000001
 10
56.81720300000001
 20
-40.45822100000001
 10
56.428922
 20
-40.998027
 10
56.03553299999998
 20
-41.53408000000001
 10
56.40702199999998
 20
-42.04007599999999
 10
56.766629
 20
-42.56117099999999
 10
57.11489099999997
 20
-43.09632099999999
 10
57.45225999999999
 20
-43.644707
 10
57.77901699999998
 20
-44.205737
 10
57.40998300000001
 20
-44.68396199999998
 10
57.03697
 20
-45.15913999999997
 10
56.412892
 20
-44.98006999999998
 10
55.79843799999998
 20
-44.787679
 10
55.1942
 20
-44.581431
 10
54.60077099999999
 20
-44.360761
 10
54.01905499999999
 20
-44.124852
 10
53.59597499999999
 20
-44.637819
 10
53.16801399999999
 20
-45.14669399999999
 10
53.50524099999998
 20
-45.67614299999999
 10
53.829627
 20
-46.21984399999999
 10
54.14176499999998
 20
-46.77683799999999
 10
54.44213399999999
 20
-47.34633400000001
 10
54.73110099999999
 20
-47.92774
 10
54.33124899999999
 20
-48.38053699999997
 10
53.92767099999999
 20
-48.830004
 10
53.31680099999999
 20
-48.610097
 10
52.71640199999999
 20
-48.377489
 10
52.12709299999999
 20
-48.131786
 10
51.549582
 20
-47.87236799999999
 10
50.98471399999998
 20
-47.59852800000001
 10
50.52867099999999
 20
-48.08239800000001
 10
50.068
 20
-48.561893
 10
50.36949799999999
 20
-49.11248
 10
50.65722399999998
 20
-49.67641699999998
 10
50.931882
 20
-50.25282799999999
 10
51.19395399999999
 20
-50.84094999999999
 10
51.44388999999998
 20
-51.44016499999998
 10
51.01496899999999
 20
-51.86555800000002
 10
50.58254799999999
 20
-52.28736799999999
 10
49.98756699999998
 20
-52.027554
 10
49.40384699999999
 20
-51.75580199999998
 10
48.83206399999998
 20
-51.47166100000001
 10
48.272954
 20
-51.17465000000001
 10
47.72744699999998
 20
-50.86406399999998
 10
47.24038699999998
 20
-51.31674899999999
 10
46.74903899999998
 20
-51.764748
 10
47.013509
 20
-52.334047
 10
47.263332
 20
-52.91579199999998
 10
47.49926999999998
 20
-53.50907900000001
 10
47.72191499999998
 20
-54.11323200000001
 10
47.93169099999999
 20
-54.72765800000002
 10
47.47561999999999
 20
-55.12375700000001
 10
47.01624699999999
 20
-55.516074
 10
46.43972299999998
 20
-55.217512
 10
45.87527899999999
 20
-54.90777299999999
 10
45.323506
 20
-54.58646299999998
 10
44.78525199999999
 20
-54.25315800000001
 10
44.26144699999999
 20
-53.90721000000002
 10
43.74554499999999
 20
-54.32667699999999
 10
43.22566299999998
 20
-54.74123299999999
 10
43.45192099999998
 20
-55.32678799999999
 10
43.66276899999998
 20
-55.923744
 10
43.85896999999999
 20
-56.53134099999999
 10
44.041201
 20
-57.14887099999998
 10
44.20991299999998
 20
-57.77582799999999
 10
43.72863999999998
 20
-58.140939
 10
43.24437499999999
 20
-58.502014
 10
42.68884899999998
 20
-58.16602800000001
 10
42.14607899999999
 20
-57.81962899999999
 10
41.61677099999998
 20
-57.46256100000002
 10
41.10171499999998
 20
-57.094402
 10
40.601928
 20
-56.71461599999997
 10
40.05941199999997
 20
-57.09908699999999
 10
39.513284
 20
-57.47836599999999
 10
39.70034099999998
 20
-58.07758000000001
 10
39.87125499999999
 20
-58.68718000000001
 10
40.0269
 20
-59.30640400000001
 10
40.16789899999999
 20
-59.93463
 10
40.29481399999998
 20
-60.57135199999999
 10
39.790483
 20
-60.90386599999999
 10
39.28338600000001
 20
-61.232147
 10
38.751284
 20
-60.86017799999999
 10
38.23258799999998
 20
-60.47867
 10
37.728059
 20
-60.087425
 10
37.23843200000001
 20
-59.68602100000001
 10
36.76483500000001
 20
-59.27400399999999
 10
36.198133
 20
-59.62178699999999
 10
35.62812799999999
 20
-59.96415100000001
 10
35.77516599999999
 20
-60.57439999999999
 10
35.90541199999999
 20
-61.19398999999998
 10
36.01979599999999
 20
-61.82213200000001
 10
36.118969
 20
-62.45831799999999
 10
36.20352299999999
 20
-63.102038
 10
35.678307
 20
-63.40048799999999
 10
35.15063699999998
 20
-63.69453599999999
 10
34.644273
 20
-63.28819199999998
 10
34.15193699999998
 20
-62.873269
 10
33.67433199999999
 20
-62.449512
 10
33.212334
 20
-62.01664
 10
32.76701599999999
 20
-61.574228
 10
32.17855399999999
 20
-61.88379799999998
 10
31.58715799999999
 20
-62.18772300000001
 10
31.693555
 20
-62.80638200000002
 10
31.78256799999998
 20
-63.433198
 10
31.85518400000001
 20
-64.06754899999999
 10
31.912108
 20
-64.708899
 10
31.95390499999999
 20
-65.356796
 10
31.41011999999999
 20
-65.61985599999999
 10
30.864189
 20
-65.87839999999999
 10
30.38576599999999
 20
-65.43948799999999
 10
29.921934
 20
-64.99292700000001
 10
29.47339799999999
 20
-64.538521
 10
29.041005
 20
-64.07607200000001
 10
28.625885
 20
-63.60518400000001
 10
28.01826
 20
-63.87518600000001
 10
27.408067
 20
-64.139374
 10
27.473345
 20
-64.76370600000001
 10
27.52075899999999
 20
-65.395038
 10
27.551267
 20
-66.032803
 10
27.56568899999999
 20
-66.67649599999998
 10
27.564588
 20
-67.325748
 10
27.004603
 20
-67.55231599999999
 10
26.44275499999999
 20
-67.77419900000001
 10
25.994388
 20
-67.30463799999998
 10
25.561092
 20
-66.82838799999998
 10
25.14357299999999
 20
-66.34533600000001
 10
24.742704
 20
-65.85531399999999
 10
24.35958799999999
 20
-65.358038
 10
23.73545299999999
 20
-65.58728699999997
 10
23.109146
 20
-65.810553
 10
23.133022
 20
-66.43784899999999
 10
23.13858099999999
 20
-67.07093
 10
23.12689699999999
 20
-67.709316
 10
23.09873199999998
 20
-68.35255700000002
 10
23.05473299999999
 20
-69.000314
 10
22.48097499999999
 20
-69.18937399999999
 10
21.90569399999998
 20
-69.373637
 10
21.48935899999999
 20
-68.87545800000001
 10
21.08849099999999
 20
-68.37160700000001
 10
20.70379399999999
 20
-67.86202700000001
 10
20.33617099999999
 20
-67.346576
 10
19.98677999999999
 20
-66.825086
 10
19.34884499999998
 20
-67.01256599999999
 10
18.70916
 20
-67.19397800000002
 10
18.69152099999999
 20
-67.82144299999998
 10
18.65522699999999
 20
-68.453508
 10
18.60137899999999
 20
-69.089722
 10
18.530767
 20
-69.72971699999999
 10
18.444041
 20
-70.373155
 10
17.85907899999999
 20
-70.52386199999998
 10
17.272875
 20
-70.66974299999998
 10
16.89035099999999
 20
-70.14511999999999
 10
16.52365899999999
 20
-69.61589699999999
 10
16.173478
 20
-69.08198899999999
 10
15.84073799999998
 20
-68.54336799999998
 10
15.52659699999999
 20
-67.99992
 10
14.877655
 20
-68.14484199999998
 10
14.22735799999999
 20
-68.28355400000001
 10
14.168289
 20
-68.90850700000001
 10
14.09031099999998
 20
-69.53679
 10
13.99452499999999
 20
-70.16806399999999
 10
13.881777
 20
-70.801964
 10
13.752717
 20
-71.43826199999998
 10
13.15906299999999
 20
-71.549994
 10
12.56450499999999
 20
-71.65678699999998
 10
12.21751299999999
 20
-71.10806199999998
 10
11.88657899999999
 20
-70.555725
 10
11.57246599999999
 20
-69.99986000000001
 10
11.27604799999999
 20
-69.440439
 10
10.99848199999998
 20
-68.877406
 10
10.34138399999999
 20
-68.979119
 10
9.683354999999991
 20
-69.074566
 10
9.583108999999993
 20
-69.694242
 10
9.463785999999984
 20
-70.31600500000002
 10
9.326484999999991
 20
-70.93954700000001
 10
9.172080999999991
 20
-71.56461299999998
 10
9.001251999999993
 20
-72.19100500000002
 10
8.401500999999996
 20
-72.26325400000002
 10
7.801186999999998
 20
-72.330508
 10
7.491221999999993
 20
-71.760052
 10
7.197513
 20
-71.18705600000001
 10
6.920822999999984
 20
-70.611661
 10
6.662024999999999
 20
-70.03384
 10
6.422276999999994
 20
-69.45370400000001
 10
5.759900999999999
 20
-69.51175700000002
 10
5.097017999999991
 20
-69.56351599999999
 10
4.956019999999995
 20
-70.175205
 10
4.795858999999992
 20
-70.78773999999999
 10
4.617662999999993
 20
-71.40083899999999
 10
4.422280999999983
 20
-72.01433400000002
 10
4.210416999999992
 20
-72.62805399999999
 10
3.60722299999999
 20
-72.66051000000001
 10
3.003746999999989
 20
-72.68797000000001
 10
2.732164999999994
 20
-72.09823899999998
 10
2.476979999999997
 20
-71.507124
 10
2.238924999999994
 20
-70.91465500000001
 10
2.018876999999989
 20
-70.32102900000001
 10
1.818018999999992
 20
-69.72630200000001
 10
1.153244999999984
 20
-69.74046999999998
 10
0.4883569999999935
 20
-69.74828699999997
 10
0.307282999999984
 20
-70.34933600000002
 10
0.1069899999999961
 20
-70.94993300000002
 10
-0.1113650000000064
 20
-71.54990900000001
 10
-0.3468790000000155
 20
-72.14918
 10
-0.598819000000006
 20
-72.74754699999999
 10
-1.202831000000017
 20
-72.74006800000001
 10
-1.806786999999999
 20
-72.727566
 10
-2.038802000000003
 20
-72.121183
 10
-2.254363000000012
 20
-71.51448999999999
 10
-2.452765000000013
 20
-70.9076
 10
-2.633077000000014
 20
-70.30070900000001
 10
-2.794226000000008
 20
-69.69401600000001
 10
-3.458464000000006
 20
-69.66421299999999
 10
-4.122392000000004
 20
-69.62806
 10
-4.342836000000005
 20
-70.21581599999999
 10
-4.582385999999999
 20
-70.80187900000002
 10
-4.839914000000007
 20
-71.386107
 10
-5.114488000000008
 20
-71.968501
 10
-5.405431000000007
 20
-72.54891899999998
 10
-6.007636000000005
 20
-72.50153400000002
 10
-6.609447000000002
 20
-72.44912600000001
 10
-6.800878000000011
 20
-71.828745
 10
-6.975884000000007
 20
-71.209126
 10
-7.133731000000011
 20
-70.59046599999999
 10
-7.273544000000015
 20
-69.972992
 10
-7.394221999999999
 20
-69.35695800000002
 10
-8.055046000000004
 20
-69.28332599999999
 10
-8.715163000000003
 20
-69.203372
 10
-8.973933000000002
 20
-69.775296
 10
-9.251696000000002
 20
-70.34422800000001
 10
-9.547267000000012
 20
-70.910168
 10
-9.859744000000013
 20
-71.473116
 10
-10.18842
 20
-72.03304499999998
 10
-10.78616700000001
 20
-71.94595200000001
 10
-11.383208
 20
-71.85391899999999
 10
-11.533237
 20
-71.222249
 10
-11.66686900000001
 20
-70.592386
 10
-11.783483
 20
-69.96463899999998
 10
-11.88220500000001
 20
-69.339291
 10
-11.96190400000001
 20
-68.71662399999999
 10
-12.61640600000001
 20
-68.59947299999999
 10
-13.26977900000001
 20
-68.476086
 10
-13.56580100000001
 20
-69.02963600000001
 10
-13.88056400000001
 20
-69.57895400000001
 10
-14.21288100000001
 20
-70.12415100000001
 10
-14.56190500000001
 20
-70.66522700000001
 10
-14.926846
 20
-71.20218300000002
 10
-15.517537
 20
-71.075804
 10
-16.107184
 20
-70.94448600000001
 10
-16.215134
 20
-70.304293
 10
-16.30685700000001
 20
-69.66697899999999
 10
-16.38173000000001
 20
-69.03291000000002
 10
-16.438908
 20
-68.40236899999999
 10
-16.477262
 20
-67.77583599999999
 10
-17.12262
 20
-67.61567500000001
 10
-17.766397
 20
-67.44936100000001
 10
-18.098347
 20
-67.98213999999998
 10
-18.44872600000001
 20
-68.50947299999998
 10
-18.816348
 20
-69.03149899999999
 10
-19.20036800000001
 20
-69.54833300000001
 10
-19.599995
 20
-70.06000199999999
 10
-20.181062
 20
-69.89481699999998
 10
-20.76074700000001
 20
-69.72483400000001
 10
-20.82613700000001
 20
-69.07891199999998
 10
-20.87555500000001
 20
-68.43694199999998
 10
-20.90834900000001
 20
-67.79928899999998
 10
-20.92370200000001
 20
-67.16637700000001
 10
-20.92059700000001
 20
-66.538658
 10
-21.55393200000001
 20
-66.33619199999998
 10
-22.18532000000001
 20
-66.127715
 10
-22.55175700000001
 20
-66.63738000000001
 10
-22.93622800000001
 20
-67.14038400000001
 10
-23.33754800000001
 20
-67.63698300000001
 10
-23.75487000000001
 20
-68.127287
 10
-24.18746100000001
 20
-68.61143999999999
 10
-24.756336
 20
-68.40823999999997
 10
-25.32349000000001
 20
-68.20032599999999
 10
-25.34606700000001
 20
-67.55146899999999
 10
-25.35292500000001
 20
-66.907636
 10
-25.34352700000001
 20
-66.26922099999998
 10
-25.31702700000001
 20
-65.63664800000001
 10
-25.27243600000001
 20
-65.01051000000001
 10
-25.89101000000001
 20
-64.76664199999999
 10
-26.50724300000001
 20
-64.516875
 10
-26.90655900000001
 20
-65.001225
 10
-27.32342900000001
 20
-65.47772900000001
 10
-27.75669700000001
 20
-65.946697
 10
-28.20551500000001
 20
-66.408385
 10
-28.66914900000001
 20
-66.862875
 10
-29.22334900000001
 20
-66.62250700000001
 10
-29.77551700000001
 20
-66.377566
 10
-29.75516900000001
 20
-65.72862399999999
 10
-29.71946800000001
 20
-65.08574999999999
 10
-29.66787700000001
 20
-64.44936699999999
 10
-29.599636
 20
-63.81992700000001
 10
-29.51375600000001
 20
-63.19810699999999
 10
-30.11486100000001
 20
-62.913881
 10
-30.71325700000001
 20
-62.62395399999999
 10
-31.14370200000001
 20
-63.08084399999998
 10
-31.59113700000001
 20
-63.52875800000001
 10
-32.054461
 20
-63.96806599999999
 10
-32.53280000000001
 20
-64.39904699999999
 10
-33.02547500000001
 20
-64.82192900000001
 10
-33.56257200000001
 20
-64.54546399999998
 10
-34.09735500000001
 20
-64.26453999999998
 10
-34.03413700000001
 20
-63.618392
 10
-33.95604700000002
 20
-62.97927200000001
 10
-33.86251800000001
 20
-62.34768699999998
 10
-33.75281800000001
 20
-61.72414499999999
 10
-33.62601600000001
 20
-61.109352
 10
-34.20702700000001
 20
-60.78603799999999
 10
-34.78493300000001
 20
-60.45716500000001
 10
-35.24467300000001
 20
-60.88461799999999
 10
-35.72072600000001
 20
-61.30196899999998
 10
-36.21207500000001
 20
-61.70972299999999
 10
-36.71784500000001
 20
-62.108136
 10
-37.23738800000001
 20
-62.49751799999998
 10
-37.75504000000001
 20
-62.186171
 10
-38.27009500000001
 20
-61.87053400000002
 10
-38.16431900000001
 20
-61.22994599999998
 10
-38.04414800000001
 20
-60.59740099999999
 10
-37.90907700000001
 20
-59.97337899999999
 10
-37.75839800000001
 20
-59.35844499999999
 10
-37.59126600000001
 20
-58.753389
 10
-38.14964300000001
 20
-58.39237
 10
-38.704548
 20
-58.02604600000001
 10
-39.19149500000001
 20
-58.422145
 10
-39.69410400000001
 20
-58.807152
 10
-40.21133300000001
 20
-59.18152
 10
-40.742334
 20
-59.54564299999998
 10
-41.28645800000001
 20
-59.89983200000001
 10
-41.782407
 20
-59.554957
 10
-42.275478
 20
-59.205961
 10
-42.127593
 20
-58.57378300000002
 10
-41.96588000000001
 20
-57.95055200000001
 10
-41.78985800000001
 20
-57.336803
 10
-41.59887800000001
 20
-56.73318600000001
 10
-41.39212200000002
 20
-56.14049099999999
 10
-41.925409
 20
-55.74337600000001
 10
-42.45488700000001
 20
-55.34115299999999
 10
-42.966979
 20
-55.70423200000002
 10
-43.49391600000001
 20
-56.05517499999999
 10
-44.034738
 20
-56.394519
 10
-44.58865600000001
 20
-56.72277199999999
 10
-45.15501900000001
 20
-57.040244
 10
-45.627093
 20
-56.66333600000001
 10
-46.096005
 20
-56.28250500000001
 10
-45.90666200000001
 20
-55.66147499999999
 10
-45.704111
 20
-55.050295
 10
-45.48792900000001
 20
-54.44952800000002
 10
-45.257466
 20
-53.85985300000001
 10
-45.011961
 20
-53.282116
 10
-45.51784400000001
 20
-52.85059799999999
 10
-46.01960700000001
 20
-52.41431099999999
 10
-46.55455900000001
 20
-52.74273300000001
 10
-47.103538
 20
-53.05806000000001
 10
-47.665612
 20
-53.360941
 10
-48.240019
 20
-53.651884
 10
-48.82611
 20
-53.93119899999999
 10
-49.272247
 20
-53.52392399999999
 10
-49.71496900000001
 20
-53.112952
 10
-49.484986
 20
-52.50577900000002
 10
-49.2425
 20
-51.90933100000001
 10
-48.98706100000001
 20
-51.32417100000001
 10
-48.71816000000001
 20
-50.75100600000002
 10
-48.435006
 20
-50.19076699999999
 10
-48.91125600000001
 20
-49.726765
 10
-49.383075
 20
-49.258248
 10
-49.93857300000001
 20
-49.550602
 10
-50.50719500000001
 20
-49.828958
 10
-51.08806400000001
 20
-50.09402099999999
 10
-51.680421
 20
-50.34635600000001
 10
-52.28369900000001
 20
-50.58633
 10
-52.701924
 20
-50.15046599999999
 10
-53.116537
 20
-49.71112999999999
 10
-52.84693
 20
-49.120496
 10
-52.565554
 20
-48.54137600000001
 10
-52.27201500000001
 20
-47.97436299999998
 10
-51.96580400000001
 20
-47.42024799999998
 10
-51.64624300000001
 20
-46.87993299999999
 10
-52.0908
 20
-46.38545200000002
 10
-52.53061500000001
 20
-45.88679299999998
 10
-53.104203
 20
-46.14178100000001
 10
-53.68998400000001
 20
-46.38195200000001
 10
-54.28711000000001
 20
-46.60806899999999
 10
-54.89484700000001
 20
-46.82069499999999
 10
-55.51266000000001
 20
-47.020282
 10
-55.90119500000001
 20
-46.55771999999998
 10
-56.285836
 20
-46.09194099999998
 10
-55.97779000000001
 20
-45.52041199999999
 10
-55.65876600000001
 20
-44.961161
 10
-55.32836900000001
 20
-44.41477900000001
 10
-54.98620200000001
 20
-43.88211199999997
 10
-54.631647
 20
-43.36409399999999
 10
-55.042562
 20
-42.84133300000002
 10
-55.44845400000001
 20
-42.31467800000001
 10
-56.03764900000001
 20
-42.53122799999999
 10
-56.63802100000001
 20
-42.73214199999998
 10
-57.24877800000001
 20
-42.918295
 10
-57.86924300000001
 20
-43.090282
 10
-58.49888100000001
 20
-43.24860800000002
 10
-58.85597700000001
 20
-42.76138
 10
-59.20903700000001
 20
-42.27118799999999
 10
-58.86387900000001
 20
-41.72127800000001
 10
-58.50856100000001
 20
-41.184322
 10
-58.14280100000001
 20
-40.66099700000001
 10
-57.76617600000001
 20
-40.152094
 10
-57.378177
 20
-39.65865700000001
 10
-57.75361700000001
 20
-39.10987600000002
 10
-58.12380800000001
 20
-38.55753899999999
 10
-58.72604200000001
 20
-38.73466100000002
 10
-59.338379
 20
-38.89547199999999
 10
-59.96011500000001
 20
-39.04087200000001
 10
-60.59057100000001
 20
-39.17145700000001
 10
-61.229325
 20
-39.28781699999999
 10
-61.553429
 20
-38.77806699999999
 10
-61.873299
 20
-38.26560800000001
 10
-61.492553
 20
-37.73971499999999
 10
-61.102551
 20
-37.22742500000001
 10
-60.70298000000001
 20
-36.72941599999999
 10
-60.29356100000001
 20
-36.24650600000001
 10
-59.87378300000001
 20
-35.77979500000001
 10
-60.21213900000001
 20
-35.207392
 10
-60.545021
 20
-34.631799
 10
-61.15764000000001
 20
-34.768734
 10
-61.77926300000001
 20
-34.888734
 10
-62.40923900000001
 20
-34.992705
 10
-63.04697700000001
 20
-35.08135100000001
 10
-63.691996
 20
-35.155237
 10
-63.98172500000001
 20
-34.62516700000001
 10
-64.267024
 20
-34.09269799999999
 10
-63.852355
 20
-33.59313699999999
 10
-63.429332
 20
-33.10771499999999
 10
-62.997729
 20
-32.63719399999999
 10
-62.55729300000001
 20
-32.18242100000001
 10
-62.107572
 20
-31.74446799999998
 10
-62.40737700000001
 20
-31.15095500000001
 10
-62.70148100000001
 20
-30.55462
 10
-63.321805
 20
-30.65077299999999
 10
-63.95000300000001
 20
-30.72942800000002
 10
-64.58548300000001
 20
-30.79154499999999
 10
-65.22768000000001
 20
-30.83783
 10
-65.87617
 20
-30.86893000000001
 10
-66.13022700000001
 20
-30.32088300000001
 10
-66.37971100000001
 20
-29.77071899999998
 10
-65.93295300000001
 20
-29.299634
 10
-65.478773
 20
-28.84325200000001
 10
-65.01702900000001
 20
-28.40228000000002
 10
-64.54746800000001
 20
-27.97762
 10
-64.06980700000001
 20
-27.570345
 10
-64.329705
 20
-26.95831799999999
 10
-64.58379
 20
-26.34383600000001
 10
-65.20908100000001
 20
-26.39878400000001
 10
-65.84111800000001
 20
-26.435756
 10
-66.479307
 20
-26.45570900000001
 10
-67.12316900000001
 20
-26.45948999999999
 10
-67.77230800000001
 20
-26.447665
 10
-67.989563
 20
-25.88401100000002
 10
-68.202161
 20
-25.31855100000001
 10
-67.725234
 20
-24.87802999999999
 10
-67.241872
 20
-24.452665
 10
-66.75199
 20
-24.04318799999999
 10
-66.25539200000002
 20
-23.650476
 10
-65.751851
 20
-23.275657
 10
-65.97074300000001
 20
-22.647797
 10
-66.18365100000001
 20
-22.017877
 10
-66.81122900000001
 20
-22.03136699999999
 10
-67.444338
 20
-22.02648500000001
 10
-68.08241399999999
 20
-22.00421799999998
 10
-68.72511900000001
 20
-21.96541199999999
 10
-69.37205700000001
 20
-21.91071700000001
 10
-69.551607
 20
-21.33393999999999
 10
-69.726359
 20
-20.755695
 10
-69.22135
 20
-20.347658
 10
-68.71095100000001
 20
-19.95514299999999
 10
-68.19507700000001
 20
-19.57894099999998
 10
-67.67361500000001
 20
-19.219898
 10
-67.14639600000001
 20
-18.87917099999998
 10
-67.323321
 20
-18.23821599999999
 10
-67.494122
 20
-17.59562399999999
 10
-68.12122000000001
 20
-17.5676
 10
-68.75260700000001
 20
-17.520892
 10
-69.387833
 20
-17.45651699999999
 10
-70.02658700000001
 20
-17.37532200000001
 10
-70.668473
 20
-17.277983
 10
-70.809499
 20
-16.690594
 10
-70.945671
 20
-16.10204799999999
 10
-70.41481100000002
 20
-15.728273
 10
-69.87957700000001
 20
-15.37038699999999
 10
-69.33996800000001
 20
-15.029067
 10
-68.7959
 20
-14.705274
 10
-68.247317
 20
-14.40016299999999
 10
-68.38151300000001
 20
-13.748907
 10
-68.50947300000001
 20
-13.09640900000002
 10
-69.13335300000001
 20
-13.027039
 10
-69.760253
 20
-12.93867499999999
 10
-70.389835
 20
-12.832447
 10
-71.021815
 20
-12.70922899999999
 10
-71.65588400000001
 20
-12.56967
 10
-71.757794
 20
-11.974266
 10
-71.85473700000001
 20
-11.378015
 10
-71.30034000000001
 20
-11.04013799999998
 10
-70.742613
 20
-10.718377
 10
-70.18163900000001
 20
-10.41349199999999
 10
-69.61736400000001
 20
-10.12635900000001
 10
-69.049844
 20
-9.85816299999999
 10
-69.140663
 20
-9.199485000000009
 10
-69.22521700000001
 20
-8.539960000000007
 10
-69.84314200000001
 20
-8.429470000000009
 10
-70.46284600000001
 20
-8.29987299999999
 10
-71.084045
 20
-8.152298999999999
 10
-71.70648600000001
 20
-7.987565999999986
 10
-72.32994300000001
 20
-7.806408000000004
 10
-72.39228600000001
 20
-7.205556999999998
 10
-72.44960500000001
 20
-6.604197999999996
 10
-71.87409800000001
 20
-6.30371599999998
 10
-71.296333
 20
-6.019545999999991
 10
-70.71642200000001
 20
-5.752393999999981
 10
-70.13442400000001
 20
-5.503191999999984
 10
-69.55039300000001
 20
-5.273067999999994
 10
-69.59749600000001
 20
-4.609817999999989
 10
-69.638277
 20
-3.946144000000003
 10
-70.24756700000001
 20
-3.795070000000009
 10
-70.85733600000001
 20
-3.624806000000006
 10
-71.46741600000002
 20
-3.436478999999991
 10
-72.07760800000001
 20
-3.230992999999983
 10
-72.68774500000001
 20
-3.009025000000008
 10
-72.710238
 20
-2.405351999999993
 10
-72.72767900000001
 20
-1.801536999999996
 10
-72.13357300000001
 20
-1.539719999999988
 10
-71.53828200000001
 20
-1.294355999999993
 10
-70.94200300000001
 20
-1.066123000000004
 10
-70.34479200000001
 20
-0.8559239999999874
 10
-69.74682000000001
 20
-0.6649160000000052
 10
-69.75000900000001
 20
0.0
 10
-69.74682000000001
 20
0.6649160000000052
 10
-70.34479200000001
 20
0.8559239999999874
 10
-70.94200300000001
 20
1.066123000000033
 10
-71.53828200000001
 20
1.294355999999993
 10
-72.13357300000001
 20
1.539719999999988
 10
-72.72767900000001
 20
1.801536999999996
 10
-72.710238
 20
2.405351999999965
 10
-72.68774500000001
 20
3.009025000000036
 10
-72.07760800000001
 20
3.230992999999983
 10
-71.46741600000002
 20
3.436478999999991
 10
-70.85733600000001
 20
3.624805999999978
 10
-70.24756700000001
 20
3.795069999999981
 10
-69.638277
 20
3.946144000000003
 10
-69.59749600000001
 20
4.609817999999989
 10
-69.55039300000001
 20
5.273067999999994
 10
-70.13442400000001
 20
5.503192000000012
 10
-70.71642200000001
 20
5.752394000000009
 10
-71.296333
 20
6.019546000000019
 10
-71.87409800000001
 20
6.30371599999998
 10
-72.44960500000001
 20
6.604198000000025
 10
-72.39228600000001
 20
7.205556999999998
 10
-72.32994300000001
 20
7.806407999999976
 10
-71.70648600000001
 20
7.987565999999986
 10
-71.084045
 20
8.152298999999999
 10
-70.46284600000001
 20
8.299873000000019
 10
-69.84314200000001
 20
8.429470000000009
 10
-69.22521700000001
 20
8.539959999999979
 10
-69.140663
 20
9.199484999999981
 10
-69.049844
 20
9.858163000000018
 10
-69.61736400000001
 20
10.12635900000001
 10
-70.18163900000001
 20
10.41349200000002
 10
-70.742613
 20
10.71837699999997
 10
-71.30034000000001
 20
11.04013800000001
 10
-71.85473700000001
 20
11.378015
 10
-71.757794
 20
11.974266
 10
-71.65588400000001
 20
12.56967
 10
-71.021815
 20
12.70922899999999
 10
-70.389835
 20
12.832447
 10
-69.760253
 20
12.93867500000002
 10
-69.13335300000001
 20
13.027039
 10
-68.50947300000001
 20
13.09640899999999
 10
-68.38151300000001
 20
13.748907
 10
-68.247317
 20
14.40016300000002
 10
-68.7959
 20
14.705274
 10
-69.33996800000001
 20
15.02906700000002
 10
-69.87957700000001
 20
15.37038699999999
 10
-70.41481100000002
 20
15.72827300000003
 10
-70.945671
 20
16.10204800000002
 10
-70.809499
 20
16.690594
 10
-70.668473
 20
17.27798299999998
 10
-70.02658700000001
 20
17.37532199999998
 10
-69.387833
 20
17.45651700000002
 10
-68.75260700000001
 20
17.520892
 10
-68.12122000000001
 20
17.56760000000002
 10
-67.494122
 20
17.59562399999999
 10
-67.323321
 20
18.23821599999999
 10
-67.14639600000001
 20
18.87917100000001
 10
-67.67361500000001
 20
19.21989800000003
 10
-68.19507700000001
 20
19.57894099999998
 10
-68.71095100000001
 20
19.95514299999999
 10
-69.22135
 20
20.347658
 10
-69.726359
 20
20.755695
 10
-69.551607
 20
21.33394000000001
 10
-69.37205700000001
 20
21.91071700000001
 10
-68.72511900000001
 20
21.96541199999999
 10
-68.08241399999999
 20
22.00421799999998
 10
-67.444338
 20
22.02648499999998
 10
-66.81122900000001
 20
22.03136700000002
 10
-66.18365100000001
 20
22.01787699999997
 10
-65.97074300000001
 20
22.647797
 10
-65.751851
 20
23.275657
 10
-66.25539200000002
 20
23.650476
 10
-66.75199
 20
24.04318800000002
 10
-67.241872
 20
24.45266500000002
 10
-67.725234
 20
24.87802999999999
 10
-68.202161
 20
25.31855100000001
 10
-67.989563
 20
25.88401100000002
 10
-67.77230800000001
 20
26.447665
 10
-67.12316900000001
 20
26.45949000000002
 10
-66.479307
 20
26.45570900000001
 10
-65.84111800000001
 20
26.43575599999997
 10
-65.20908100000001
 20
26.39878400000001
 10
-64.58379
 20
26.34383600000001
 10
-64.329705
 20
26.95831799999999
 10
-64.06980700000001
 20
27.570345
 10
-64.54746800000001
 20
27.97762
 10
-65.01702900000001
 20
28.40227999999999
 10
-65.478773
 20
28.84325199999998
 10
-65.93295300000001
 20
29.299634
 10
-66.37971100000001
 20
29.77071900000002
 10
-66.13022700000001
 20
30.32088299999998
 10
-65.87617
 20
30.86893000000001
 10
-65.22768000000001
 20
30.83783
 10
-64.58548300000001
 20
30.79154499999999
 10
-63.95000300000001
 20
30.72942800000002
 10
-63.321805
 20
30.65077300000002
 10
-62.70148100000001
 20
30.55462
 10
-62.40737700000001
 20
31.15095500000001
 10
-62.107572
 20
31.74446799999998
 10
-62.55729300000001
 20
32.18242100000001
 10
-62.997729
 20
32.63719400000002
 10
-63.429332
 20
33.10771500000001
 10
-63.852355
 20
33.59313699999999
 10
-64.267024
 20
34.09269800000001
 10
-63.98172500000001
 20
34.62516700000001
 10
-63.691996
 20
35.155237
 10
-63.04697700000001
 20
35.08135100000001
 10
-62.40923900000001
 20
34.992705
 10
-61.77926300000001
 20
34.888734
 10
-61.15764000000001
 20
34.768734
 10
-60.545021
 20
34.631799
 10
-60.21213900000001
 20
35.20739200000003
 10
-59.87378300000001
 20
35.77979500000001
 10
-60.29356100000001
 20
36.24650599999998
 10
-60.70298000000001
 20
36.72941599999999
 10
-61.102551
 20
37.22742500000001
 10
-61.492553
 20
37.73971500000002
 10
-61.873299
 20
38.26560799999999
 10
-61.553429
 20
38.77806700000002
 10
-61.229325
 20
39.28781700000002
 10
-60.59057100000001
 20
39.17145700000001
 10
-59.96011500000001
 20
39.04087200000001
 10
-59.338379
 20
38.89547199999999
 10
-58.72604200000001
 20
38.73466100000002
 10
-58.12380800000001
 20
38.55753899999999
 10
-57.75361700000001
 20
39.10987600000002
 10
-57.378177
 20
39.65865700000001
 10
-57.76617600000001
 20
40.152094
 10
-58.14280100000001
 20
40.66099700000001
 10
-58.50856100000001
 20
41.184322
 10
-58.86387900000001
 20
41.72127800000001
 10
-59.20903700000001
 20
42.27118800000002
 10
-58.85597700000001
 20
42.76138
 10
-58.49888100000001
 20
43.24860799999998
 10
-57.86924300000001
 20
43.090282
 10
-57.24877800000001
 20
42.918295
 10
-56.63802100000001
 20
42.732142
 10
-56.03764900000001
 20
42.53122799999999
 10
-55.44845400000001
 20
42.31467800000001
 10
-55.042562
 20
42.84133299999999
 10
-54.631647
 20
43.36409400000002
 10
-54.98620200000001
 20
43.88211199999997
 10
-55.32836900000001
 20
44.41477899999997
 10
-55.65876600000001
 20
44.961161
 10
-55.97779000000001
 20
45.52041199999999
 10
-56.285836
 20
46.09194099999998
 10
-55.90119500000001
 20
46.55771999999998
 10
-55.51266000000001
 20
47.02028199999998
 10
-54.89484700000001
 20
46.82069499999997
 10
-54.28711000000001
 20
46.60806900000003
 10
-53.68998400000001
 20
46.38195199999998
 10
-53.104203
 20
46.14178099999998
 10
-52.53061500000001
 20
45.88679299999998
 10
-52.0908
 20
46.38545199999998
 10
-51.64624300000001
 20
46.87993299999996
 10
-51.96580400000001
 20
47.42024800000004
 10
-52.27201500000001
 20
47.97436300000001
 10
-52.565554
 20
48.54137599999998
 10
-52.84693
 20
49.12049600000003
 10
-53.116537
 20
49.71112999999999
 10
-52.701924
 20
50.15046599999997
 10
-52.28369900000001
 20
50.58633
 10
-51.680421
 20
50.34635599999998
 10
-51.08806400000001
 20
50.09402100000002
 10
-50.50719500000001
 20
49.82895799999997
 10
-49.93857300000001
 20
49.550602
 10
-49.383075
 20
49.258248
 10
-48.91125600000001
 20
49.72676500000003
 10
-48.435006
 20
50.19076700000002
 10
-48.71816000000001
 20
50.75100599999998
 10
-48.98706100000001
 20
51.32417100000001
 10
-49.2425
 20
51.90933099999998
 10
-49.484986
 20
52.50577899999999
 10
-49.71496900000001
 20
53.11295199999998
 10
-49.272247
 20
53.52392399999999
 10
-48.82611
 20
53.93119900000002
 10
-48.240019
 20
53.65188400000002
 10
-47.665612
 20
53.360941
 10
-47.103538
 20
53.05805999999998
 10
-46.55455900000001
 20
52.74273299999996
 10
-46.01960700000001
 20
52.41431100000003
 10
-45.51784400000001
 20
52.85059800000002
 10
-45.011961
 20
53.282116
 10
-45.257466
 20
53.85985300000001
 10
-45.48792900000001
 20
54.44952800000002
 10
-45.704111
 20
55.05029499999998
 10
-45.90666200000001
 20
55.66147500000003
 10
-46.096005
 20
56.28250499999999
 10
-45.627093
 20
56.66333599999998
 10
-45.15501900000001
 20
57.040244
 10
-44.58865600000001
 20
56.72277199999999
 10
-44.034738
 20
56.39451900000003
 10
-43.49391600000001
 20
56.05517500000004
 10
-42.966979
 20
55.70423200000002
 10
-42.45488700000001
 20
55.34115299999999
 10
-41.925409
 20
55.74337599999998
 10
-41.39212200000002
 20
56.14049099999997
 10
-41.59887800000001
 20
56.73318600000001
 10
-41.78985800000001
 20
57.336803
 10
-41.96588000000001
 20
57.95055199999999
 10
-42.127593
 20
58.57378299999997
 10
-42.275478
 20
59.20596100000003
 10
-41.782407
 20
59.55495700000003
 10
-41.28645800000001
 20
59.89983200000003
 10
-40.742334
 20
59.54564300000001
 10
-40.21133300000001
 20
59.18152
 10
-39.69410400000001
 20
58.807152
 10
-39.19149500000001
 20
58.42214499999997
 10
-38.704548
 20
58.02604600000003
 10
-38.14964300000001
 20
58.39237
 10
-37.59126600000001
 20
58.753389
 10
-37.75839800000001
 20
59.35844499999999
 10
-37.90907700000001
 20
59.97337899999999
 10
-38.04414800000001
 20
60.59740100000002
 10
-38.16431900000001
 20
61.22994600000001
 10
-38.27009500000001
 20
61.87053399999999
 10
-37.75504000000001
 20
62.18617100000003
 10
-37.23738800000001
 20
62.49751799999998
 10
-36.71784500000001
 20
62.10813600000003
 10
-36.21207500000001
 20
61.70972300000002
 10
-35.72072600000001
 20
61.30196900000001
 10
-35.24467300000001
 20
60.88461800000001
 10
-34.78493300000001
 20
60.45716500000001
 10
-34.20702700000001
 20
60.78603799999999
 10
-33.62601600000001
 20
61.10935199999997
 10
-33.75281800000001
 20
61.72414499999999
 10
-33.86251800000001
 20
62.34768699999998
 10
-33.95604700000002
 20
62.97927200000001
 10
-34.03413700000001
 20
63.618392
 10
-34.09735500000001
 20
64.26454000000004
 10
-33.56257200000001
 20
64.54546400000001
 10
-33.02547500000001
 20
64.82192899999998
 10
-32.53280000000001
 20
64.39904700000003
 10
-32.054461
 20
63.96806599999999
 10
-31.59113700000001
 20
63.52875800000001
 10
-31.14370200000001
 20
63.08084400000004
 10
-30.71325700000001
 20
62.62395399999999
 10
-30.11486100000001
 20
62.91388099999998
 10
-29.51375600000001
 20
63.19810700000002
 10
-29.599636
 20
63.81992699999997
 10
-29.66787700000001
 20
64.44936700000003
 10
-29.71946800000001
 20
65.08575000000004
 10
-29.75516900000001
 20
65.72862399999999
 10
-29.77551700000001
 20
66.37756599999997
 10
-29.22334900000001
 20
66.62250700000001
 10
-28.66914900000001
 20
66.862875
 10
-28.20551500000001
 20
66.40838499999998
 10
-27.75669700000001
 20
65.946697
 10
-27.32342900000001
 20
65.47772899999998
 10
-26.90655900000001
 20
65.001225
 10
-26.50724300000001
 20
64.516875
 10
-25.89101000000001
 20
64.76664200000001
 10
-25.27243600000001
 20
65.01050999999998
 10
-25.31702700000001
 20
65.63664800000001
 10
-25.34352700000001
 20
66.26922100000005
 10
-25.35292500000001
 20
66.907636
 10
-25.34606700000001
 20
67.55146900000003
 10
-25.32349000000001
 20
68.20032599999999
 10
-24.756336
 20
68.40824000000001
 10
-24.18746100000001
 20
68.61143999999999
 10
-23.75487000000001
 20
68.127287
 10
-23.33754800000001
 20
67.63698299999996
 10
-22.93622800000001
 20
67.14038400000001
 10
-22.55175700000001
 20
66.63737999999998
 10
-22.18532000000001
 20
66.127715
 10
-21.55393200000001
 20
66.33619200000001
 10
-20.92059700000001
 20
66.53865799999997
 10
-20.92370200000001
 20
67.16637699999998
 10
-20.90834900000001
 20
67.79928900000001
 10
-20.87555500000001
 20
68.43694200000001
 10
-20.82613700000001
 20
69.07891199999998
 10
-20.76074700000001
 20
69.72483400000001
 10
-20.181062
 20
69.89481700000002
 10
-19.599995
 20
70.06000199999997
 10
-19.20036800000001
 20
69.54833299999998
 10
-18.816348
 20
69.03149900000002
 10
-18.44872600000001
 20
68.50947300000004
 10
-18.098347
 20
67.98213999999998
 10
-17.766397
 20
67.44936099999998
 10
-17.12262
 20
67.61567500000004
 10
-16.477262
 20
67.77583599999999
 10
-16.438908
 20
68.40236899999999
 10
-16.38173000000001
 20
69.03290999999999
 10
-16.30685700000001
 20
69.66697899999999
 10
-16.215134
 20
70.304293
 10
-16.107184
 20
70.94448600000001
 10
-15.517537
 20
71.07580399999998
 10
-14.926846
 20
71.20218299999996
 10
-14.56190500000001
 20
70.66522699999999
 10
-14.21288100000001
 20
70.12415100000001
 10
-13.88056400000001
 20
69.57895399999998
 10
-13.56580100000001
 20
69.02963600000001
 10
-13.26977900000001
 20
68.47608600000004
 10
-12.61640600000001
 20
68.59947300000001
 10
-11.96190400000001
 20
68.71662399999999
 10
-11.88220500000001
 20
69.33929099999997
 10
-11.783483
 20
69.96463900000001
 10
-11.66686900000001
 20
70.592386
 10
-11.533237
 20
71.222249
 10
-11.383208
 20
71.85391899999999
 10
-10.78616700000001
 20
71.94595200000001
 10
-10.18842
 20
72.03304499999998
 10
-9.859744000000013
 20
71.47311599999998
 10
-9.547267000000012
 20
70.91016799999997
 10
-9.251696000000002
 20
70.34422800000001
 10
-8.973933000000002
 20
69.775296
 10
-8.715163000000003
 20
69.20337199999997
 10
-8.055046000000004
 20
69.28332600000001
 10
-7.394221999999999
 20
69.35695799999999
 10
-7.273544000000015
 20
69.972992
 10
-7.133731000000011
 20
70.59046599999996
 10
-6.975884000000007
 20
71.209126
 10
-6.800878000000011
 20
71.828745
 10
-6.609447000000002
 20
72.44912600000001
 10
-6.007636000000005
 20
72.50153400000002
 10
-5.405431000000007
 20
72.54891900000004
 10
-5.114488000000008
 20
71.96850099999998
 10
-4.839914000000007
 20
71.386107
 10
-4.582385999999999
 20
70.80187899999995
 10
-4.342836000000005
 20
70.21581599999999
 10
-4.122392000000004
 20
69.62805999999997
 10
-3.458464000000006
 20
69.66421299999999
 10
-2.794226000000008
 20
69.69401600000001
 10
-2.633077000000014
 20
70.30070900000001
 10
-2.452765000000013
 20
70.90760000000003
 10
-2.254363000000012
 20
71.51448999999999
 10
-2.038802000000003
 20
72.121183
 10
-1.806786999999999
 20
72.727566
 10
-1.202831000000017
 20
72.74006799999998
 10
-0.598819000000006
 20
72.74754699999997
 10
-0.3468790000000155
 20
72.14918000000003
 10
-0.1113650000000064
 20
71.54990899999998
 10
0.1069899999999961
 20
70.94993299999996
 10
0.307282999999984
 20
70.34933600000002
 10
0.4883569999999935
 20
69.74828699999997
 10
1.153244999999984
 20
69.74046999999998
 10
1.818018999999992
 20
69.72630200000001
 10
2.018876999999989
 20
70.32102899999998
 10
2.238924999999994
 20
70.91465500000001
 10
2.476979999999997
 20
71.507124
 10
2.732164999999994
 20
72.098239
 10
3.003746999999989
 20
72.68796999999998
 10
3.60722299999999
 20
72.66050999999996
 10
4.210416999999992
 20
72.62805399999999
 10
4.422280999999983
 20
72.01433399999999
 10
4.617662999999993
 20
71.40083899999999
 10
4.795858999999992
 20
70.78774000000001
 10
4.956019999999995
 20
70.17520499999998
 10
5.097017999999991
 20
69.56351599999996
 10
5.759900999999999
 20
69.51175700000002
 10
6.422276999999994
 20
69.45370399999998
 10
6.662024999999999
 20
70.03384000000003
 10
6.920822999999984
 20
70.611661
 10
7.197513
 20
71.18705599999995
 10
7.491221999999993
 20
71.760052
 10
7.801186999999998
 20
72.33050799999998
 10
8.401500999999996
 20
72.26325399999999
 10
9.001251999999993
 20
72.19100499999999
 10
9.172080999999991
 20
71.56461300000003
 10
9.326484999999991
 20
70.93954699999997
 10
9.463785999999984
 20
70.31600499999999
 10
9.583108999999993
 20
69.694242
 10
9.683354999999991
 20
69.07456599999997
 10
10.34138399999999
 20
68.979119
 10
10.99848199999998
 20
68.87740599999998
 10
11.27604799999999
 20
69.440439
 10
11.57246599999999
 20
69.99985999999998
 10
11.88657899999999
 20
70.55572500000002
 10
12.21751299999999
 20
71.10806199999998
 10
12.56450499999999
 20
71.65678699999998
 10
13.15906299999999
 20
71.549994
 10
13.752717
 20
71.43826199999998
 10
13.881777
 20
70.80196399999997
 10
13.99452499999999
 20
70.16806399999999
 10
14.09031099999998
 20
69.53679000000002
 10
14.168289
 20
68.90850700000001
 10
14.22735799999999
 20
68.28355399999995
 10
14.877655
 20
68.14484200000001
 10
15.52659699999999
 20
67.99992
 10
15.84073799999998
 20
68.54336800000002
 10
16.173478
 20
69.08198899999999
 10
16.52365899999999
 20
69.61589699999999
 10
16.89035099999999
 20
70.14511999999999
 10
17.272875
 20
70.66974300000001
 10
17.85907899999999
 20
70.52386199999998
 10
18.444041
 20
70.37315500000002
 10
18.530767
 20
69.72971700000002
 10
18.60137899999999
 20
69.08972200000002
 10
18.65522699999999
 20
68.45350799999997
 10
18.69152099999999
 20
67.82144300000002
 10
18.70916
 20
67.19397799999999
 10
19.34884499999998
 20
67.01256599999997
 10
19.98677999999999
 20
66.82508600000002
 10
20.33617099999999
 20
67.346576
 10
20.70379399999999
 20
67.86202699999998
 10
21.08849099999999
 20
68.37160700000001
 10
21.48935899999999
 20
68.87545800000001
 10
21.90569399999998
 20
69.373637
 10
22.48097499999999
 20
69.18937400000001
 10
23.05473299999999
 20
69.00031399999997
 10
23.09873199999998
 20
68.35255700000002
 10
23.12689699999999
 20
67.70931599999997
 10
23.13858099999999
 20
67.07093
 10
23.133022
 20
66.43784899999999
 10
23.109146
 20
65.810553
 10
23.73545299999999
 20
65.58728699999997
 10
24.35958799999999
 20
65.358038
 10
24.742704
 20
65.85531399999999
 10
25.14357299999999
 20
66.34533600000001
 10
25.561092
 20
66.82838799999998
 10
25.994388
 20
67.30463800000004
 10
26.44275499999999
 20
67.77419899999998
 10
27.004603
 20
67.55231599999999
 10
27.564588
 20
67.325748
 10
27.56568899999999
 20
66.67649600000001
 10
27.551267
 20
66.03280300000003
 10
27.52075899999999
 20
65.39503800000002
 10
27.473345
 20
64.76370599999999
 10
27.408067
 20
64.139374
 10
28.01826
 20
63.87518600000001
 10
28.625885
 20
63.60518399999998
 10
29.041005
 20
64.07607199999998
 10
29.47339799999999
 20
64.53852100000003
 10
29.921934
 20
64.99292699999998
 10
30.38576599999999
 20
65.43948800000001
 10
30.864189
 20
65.87840000000003
 10
31.41011999999999
 20
65.61985599999999
 10
31.95390499999999
 20
65.356796
 10
31.912108
 20
64.708899
 10
31.85518400000001
 20
64.06754900000001
 10
31.78256799999998
 20
63.43319800000003
 10
31.693555
 20
62.80638200000002
 10
31.58715799999999
 20
62.18772300000003
 10
32.17855399999999
 20
61.88379800000004
 10
32.76701599999999
 20
61.57422799999998
 10
33.212334
 20
62.01664000000002
 10
33.67433199999999
 20
62.449512
 10
34.15193699999998
 20
62.87326900000002
 10
34.644273
 20
63.28819200000001
 10
35.15063699999998
 20
63.69453599999999
 10
35.678307
 20
63.40048800000002
 10
36.20352299999999
 20
63.10203800000002
 10
36.118969
 20
62.45831799999999
 10
36.01979599999999
 20
61.82213199999998
 10
35.90541199999999
 20
61.19399000000001
 10
35.77516599999999
 20
60.57439999999999
 10
35.62812799999999
 20
59.96415099999999
 10
36.198133
 20
59.62178700000001
 10
36.76483500000001
 20
59.27400399999996
 10
37.23843200000001
 20
59.68602100000001
 10
37.728059
 20
60.08742500000002
 10
38.23258799999998
 20
60.47867
 10
38.751284
 20
60.86017799999999
 10
39.28338600000001
 20
61.23214699999997
 10
39.790483
 20
60.90386599999996
 10
40.29481399999998
 20
60.57135199999996
 10
40.16789899999999
 20
59.93463
 10
40.0269
 20
59.30640399999996
 10
39.87125499999999
 20
58.68717999999998
 10
39.70034099999998
 20
58.07757999999998
 10
39.513284
 20
57.47836599999996
 10
40.05941199999997
 20
57.09908699999997
 10
40.601928
 20
56.714616
 10
41.10171499999998
 20
57.09440199999997
 10
41.61677099999998
 20
57.46256100000002
 10
42.14607899999999
 20
57.81962899999999
 10
42.68884899999998
 20
58.16602800000001
 10
43.24437499999999
 20
58.502014
 10
43.72863999999998
 20
58.14093899999997
 10
44.20991299999998
 20
57.77582800000002
 10
44.041201
 20
57.14887100000002
 10
43.85896999999999
 20
56.53134099999997
 10
43.66276899999998
 20
55.92374400000003
 10
43.45192099999998
 20
55.32678799999999
 10
43.22566299999998
 20
54.74123299999999
 10
43.74554499999999
 20
54.32667699999999
 10
44.26144699999999
 20
53.90720999999999
 10
44.78525199999999
 20
54.25315799999996
 10
45.323506
 20
54.58646300000001
 10
45.87527899999999
 20
54.90777300000004
 10
46.43972299999998
 20
55.21751199999997
 10
47.01624699999999
 20
55.51607399999998
 10
47.47561999999999
 20
55.12375699999998
 10
47.93169099999999
 20
54.72765799999999
 10
47.72191499999998
 20
54.11323200000001
 10
47.49926999999998
 20
53.50907899999995
 10
47.263332
 20
52.91579200000004
 10
47.013509
 20
52.33404699999997
 10
46.74903899999998
 20
51.76474800000002
 10
47.24038699999998
 20
51.31674899999999
 10
47.72744699999998
 20
50.86406400000001
 10
48.272954
 20
51.17465000000001
 10
48.83206399999998
 20
51.47166100000001
 10
49.40384699999999
 20
51.75580199999998
 10
49.98756699999998
 20
52.02755399999998
 10
50.58254799999999
 20
52.28736799999999
 10
51.01496899999999
 20
51.86555799999999
 10
51.44388999999998
 20
51.44016500000001
 10
51.19395399999999
 20
50.84095000000004
 10
50.931882
 20
50.25282799999999
 10
50.65722399999998
 20
49.67641700000005
 10
50.36949799999999
 20
49.11247999999997
 10
50.068
 20
48.56189299999996
 10
50.52867099999999
 20
48.08239800000004
 10
50.98471399999998
 20
47.59852800000001
 10
51.549582
 20
47.87236799999996
 10
52.12709299999999
 20
48.131786
 10
52.71640199999999
 20
48.377489
 10
53.31680099999999
 20
48.61009700000002
 10
53.92767099999999
 20
48.830004
 10
54.33124899999999
 20
48.38053699999997
 10
54.73110099999999
 20
47.92774
 10
54.44213399999999
 20
47.34633399999998
 10
54.14176499999998
 20
46.77683800000003
 10
53.829627
 20
46.21984400000002
 10
53.50524099999998
 20
45.67614299999999
 10
53.16801399999999
 20
45.14669400000002
 10
53.59597499999999
 20
44.637819
 10
54.01905499999999
 20
44.12485199999998
 10
54.60077099999999
 20
44.360761
 10
55.1942
 20
44.58143099999998
 10
55.79843799999998
 20
44.78767899999996
 10
56.412892
 20
44.98006999999998
 10
57.03697
 20
45.15914000000001
 10
57.40998300000001
 20
44.68396199999998
 10
57.77901699999998
 20
44.205737
 10
57.45225999999999
 20
43.644707
 10
57.11489099999997
 20
43.09632100000001
 10
56.766629
 20
42.56117100000003
 10
56.40702199999998
 20
42.04007599999999
 10
56.03553299999998
 20
41.53408000000001
 10
56.428922
 20
40.99802699999997
 10
56.81720300000001
 20
40.45822100000001
 10
57.413229
 20
40.65518400000001
 10
58.01992199999998
 20
40.83614400000001
 10
58.63649299999997
 20
41.00200599999999
 10
59.26231999999998
 20
41.15339
 10
59.89684099999999
 20
41.29080399999998
 10
60.23765199999999
 20
40.79203299999997
 10
60.57428699999997
 20
40.29044000000001
 10
60.211151
 20
39.75224200000003
 10
59.838279
 20
39.22733699999998
 10
59.45541699999998
 20
38.71637300000003
 10
59.06216799999999
 20
38.22019800000001
 10
58.65805399999999
 20
37.73985599999998
 10
59.01515
 20
37.178968
 10
59.366884
 20
36.61469299999999
 10
59.97462099999999
 20
36.77180599999997
 10
60.59195399999999
 20
36.91229600000003
 10
61.21814899999998
 20
37.03703800000003
 10
61.85258400000001
 20
37.14670999999999
 10
62.49483699999998
 20
37.24190300000001
 10
62.801895
 20
36.72168299999999
 10
63.10466299999998
 20
36.19895099999999
 10
62.70675800000001
 20
35.68592799999999
 10
62.29999099999997
 20
35.18681799999999
 10
61.88419299999998
 20
34.70227
 10
61.459025
 20
34.23318899999998
 10
61.02403599999999
 20
33.78058899999999
 10
61.343286
 20
33.19731999999999
 10
61.65697599999998
 20
32.61105999999998
 10
62.27377299999997
 20
32.72767400000001
 10
62.89903599999999
 20
32.827045
 10
63.53208899999998
 20
32.91010299999999
 10
64.17242299999998
 20
32.97763800000002
 10
64.81952999999998
 20
33.03015999999999
 10
65.09156399999998
 20
32.49077699999998
 10
65.35911100000001
 20
31.94919200000001
 10
64.928157
 20
31.46360100000001
 10
64.48930200000001
 20
30.99243099999998
 10
64.04240300000001
 20
30.53644400000002
 10
63.58714999999998
 20
30.09645999999998
 10
63.12320499999998
 20
29.67363499999999
 10
63.403198
 20
29.070526
 10
63.67746099999999
 20
28.46479200000002
 10
64.30060800000001
 20
28.54040000000003
 10
64.93106399999999
 20
28.59822699999998
 10
65.56823699999998
 20
28.63929000000002
 10
66.21161899999998
 20
28.66432300000003
 10
66.86078699999999
 20
28.67397500000001
 10
67.096583
 20
28.11782800000001
 10
67.327752
 20
27.55970599999998
 10
66.86564099999998
 20
27.10366300000001
 10
66.396616
 20
26.66254900000001
 10
65.920535
 20
26.23707100000002
 10
65.43720099999998
 20
25.828159
 10
64.94633200000001
 20
25.43688600000002
 10
65.18588299999999
 20
24.81661800000001
 10
65.41947799999999
 20
24.19409299999998
 10
66.04626499999998
 20
24.22832600000001
 10
66.67917699999998
 20
24.24435599999998
 10
67.31767600000001
 20
24.24322800000002
 10
67.961284
 20
24.22570199999999
 10
68.60968999999997
 20
24.19242800000001
 10
68.80820499999998
 20
23.62188699999999
 10
69.00197900000001
 20
23.04973800000002
 10
68.51074299999999
 20
22.62521900000002
 10
68.01360800000001
 20
22.21605399999999
 10
67.510434
 20
21.823003
 10
67.001136
 20
21.44691300000002
 10
66.48548799999997
 20
21.088943
 10
66.68349499999999
 20
20.454197
 10
66.87546199999997
 20
19.817588
 10
67.50312499999998
 20
19.81033499999998
 10
68.135726
 20
19.78448299999999
 10
68.772729
 20
19.74116199999997
 10
69.41379699999998
 20
19.68113400000001
 10
70.058562
 20
19.60507500000003
 10
70.21894899999998
 20
19.02265299999999
 10
70.374482
 20
18.438961
 10
69.85626499999998
 20
18.04782899999998
 10
69.33316599999997
 20
17.67241700000002
 10
68.80512899999999
 20
17.31345799999999
 10
68.27209499999998
 20
16.971857
 10
67.73389799999998
 20
16.64876900000001
 10
67.88954299999997
 20
16.00230999999999
 10
68.03898000000001
 20
15.35441300000002
 10
68.66483600000001
 20
15.30567300000001
 10
69.29433299999999
 20
15.23810900000001
 10
69.927075
 20
15.15276500000001
 10
70.56278
 20
15.05051599999999
 10
71.20111099999999
 20
14.93198299999997
 10
71.32263499999999
 20
14.34027599999999
 10
71.43924999999999
 20
13.74755199999998
 10
70.89633899999999
 20
13.39152899999999
 10
70.34956099999999
 20
13.05150799999998
 10
69.798946
 20
12.72825000000003
 10
69.24449199999997
 20
12.42263199999999
 10
68.68614399999998
 20
12.13580999999999
 10
68.79869399999998
 20
11.48046100000002
 10
68.90500700000001
 20
10.82409699999999
 10
69.52626299999997
 20
10.73412500000003
 10
70.14991699999999
 20
10.62510199999997
 10
70.775632
 20
10.49810199999999
 10
71.40318199999999
 20
10.35405599999998
 10
72.03231099999999
 20
10.193613
 10
72.11446599999999
 20
9.595159999999992
 10
72.191654
 20
8.996030999999987
 10
71.62636299999997
 20
8.676668000000006
 10
71.058334
 20
8.37353299999998
 10
70.48756799999998
 20
8.087359999999989
 10
69.91412099999999
 20
7.819051000000001
 10
69.338021
 20
7.569763999999992
 10
69.40702399999998
 20
6.908432999999973
 10
69.46973399999999
 20
6.246480999999988
 10
70.08367999999999
 20
6.115613999999993
 10
70.69875500000001
 20
5.965613000000018
 10
71.31473299999999
 20
5.797550000000029
 10
71.931389
 20
5.612355999999977
 10
72.54852399999998
 20
5.410680000000013
 10
72.59094199999998
 20
4.808078999999992
 10
72.62836499999997
 20
4.205167999999986
 10
72.04323299999998
 20
3.923876999999976
 10
71.45638099999999
 20
3.658954999999991
 10
70.86794699999998
 20
3.411107000000015
 10
70.27804599999999
 20
3.181294000000008
 10
69.68670599999999
 20
2.970615000000009
 10
69.71185199999999
 20
2.306178999999985
 10
69.73067599999999
 20
1.641517000000021
  0
LWPOLYLINE
  5
1007D
330
1F
100
AcDbEntity
  8
0
100
AcDbPolyline
 90
        4
 70
     1
 43
0.0
 10
-25.0
 20
10.0
 10
-30.0
 20
10.0
 10
-30.0
 20
-10.0
 10
-25.0
 20
-10.0
  0
LWPOLYLINE
  5
1007E
330
1F
100
AcDbEntity
  8
0
100
AcDbPolyline
 90
        4
 70
     1
 43
0.0
 10
25.0
 20
10.0
 10
30.0
 20
10.0
 10
30.0
 20
-10.0
 10
25.0
 20
-10.0
  0
CIRCLE
  5
1007F
330
1F
100
AcDbEntity
  8
0
100
AcDbCircle
 10
-27.5
 20
22.0
 30
0.0
 40
1.5
  0
CIRCLE
  5
10080
330
1F
100
AcDbEntity
  8
0
100
AcDbCircle
 10
27.5
 20
22.0
 30
0.0
 40
1.5
  0
CIRCLE
  5
10081
330
1F
100
AcDbEntity
  8
0
100
AcDbCircle
 10
-27.5
 20
-22.0
 30
0.0
 40
1.5
  0
CIRCLE
  5
10082
330
1F
100
AcDbEntity
  8
0
100
AcDbCircle
 10
27.5
 20
-22.0
 30
0.0
 40
1.5
  0
LWPOLYLINE
  5
10083
330
1F
100
AcDbEntity
  8
0
100
AcDbPolyline
 90
        4
 70
     1
 43
0.0
 10
-10.0
 20
30.0
 10
10.0
 20
30.0
 10
10.0
 20
35.0
 10
-10.0
 20
35.0
  0
CIRCLE
  5
10084
330
1F
100
AcDbEntity
  8
0
100
AcDbCircle
 10
-15.0
 20
32.5
 30
0.0
 40
1.5
  0
CIRCLE
  5
10085
330
1F
100
AcDbEntity
  8
0
100
AcDbCircle
 10
15.0
 20
32.5
 30
0.0
 40
1.5
  0
CIRCLE
  5
10089
330
1F
100
AcDbEntity
  8
0
  6
Continuous
100
AcDbCircle
 10
0.0
 20
0.0
 30
0.0
 40
11.1
  0
CIRCLE
  5
1008E
330
1F
100
AcDbEntity
  8
0
  6
Continuous
100
AcDbCircle
 10
-12.72792206135785
 20
12.72792206135785
 30
0.0
 40
1.5
  0
CIRCLE
  5
1008F
330
1F
100
AcDbEntity
  8
0
  6
Continuous
100
AcDbCircle
 10
12.72792206135785
 20
12.72792206135785
 30
0.0
 40
1.5
  0
CIRCLE
  5
10090
330
1F
100
AcDbEntity
  8
0
  6
Continuous
100
AcDbCircle
 10
12.72792206135785
 20
-12.72792206135785
 30
0.0
 40
1.5
  0
CIRCLE
  5
10091
330
1F
100
AcDbEntity
  8
0
  6
Continuous
100
AcDbCircle
 10
-12.72792206135785
 20
-12.72792206135785
 30
0.0
 40
1.5
  0
CIRCLE
  5
101AA
330
1F
100
AcDbEntity
  8
Reference
  6
Continuous
100
AcDbCircle
 10
0.0
 20
0.0
 30
0.0
 40
62.7
  0
CIRCLE
  5
101B4
330
1F
100
AcDbEntity
  8
0
  6
Continuous
100
AcDbCircle
 10
-0.0198610485959928
 20
21.9999013822558
 30
0.0
 40
3.0
  0
CIRCLE
  5
101D7
330
1F
100
AcDbEntity
  8
Reference
  6
Continuous
100
AcDbCircle
 10
0.0
 20
0.0
 30
0.0
 40
15.375
  0
CIRCLE
  5
101D8
330
1F
100
AcDbEntity
  8
Reference
  6
Continuous
100
AcDbCircle
 10
0.0
 20
0.0
 30
0.0
 40
20.625
  0
CIRCLE
  5
101D9
330
1F
100
AcDbEntity
  8
Reference
  6
Continuous
100
AcDbCircle
 10
0.0
 20
0.0
 30
0.0
 40
32.5922
  0
CIRCLE
  5
101DA
330
1F
100
AcDbEntity
  8
Reference
  6
Continuous
100
AcDbCircle
 10
0.0
 20
0.0
 30
0.0
 40
38.4196
  0
CIRCLE
  5
101FD
330
1F
100
AcDbEntity
  8
afterthought
100
AcDbCircle
 10
34.16386102057447
 20
-23.75457223153899
 30
0.0
 40
1.5
  0
ENDSEC
  0
SECTION
  2
OBJECTS
  0
DICTIONARY
  5
C
330
0
100
AcDbDictionary
281
     1
  3
ACAD_CIP_PREVIOUS_PRODUCT_INFO
350
10056
  3
ACAD_COLOR
350
10035
  3
ACAD_DETAILVIEWSTYLE
350
1004E
  3
ACAD_GROUP
350
D
  3
ACAD_LAYOUT
350
10050
  3
ACAD_MATERIAL
350
10003
  3
ACAD_MLEADERSTYLE
350
1004A
  3
ACAD_MLINESTYLE
350
17
  3
ACAD_PLOTSETTINGS
350
10051
  3
ACAD_PLOTSTYLENAME
350
10001
  3
ACAD_SCALELIST
350
10038
  3
ACAD_SECTIONVIEWSTYLE
350
1004C
  3
ACAD_TABLESTYLE
350
10036
  3
ACAD_VISUALSTYLE
350
1001C
  3
ACDB_RECOMPOSE_DATA
350
1021E
  3
AcDbVariableDictionary
350
10100
  0
DICTIONARY
  5
10069
330
2
100
AcDbDictionary
280
     1
281
     1
  3
ACAD_LAYERSTATES
360
1006A
  0
DICTIONARY
  5
100A5
330
50
100
AcDbDictionary
280
     1
281
     1
  3
ADSK_XREC_LAYER_RECONCILED
360
100A6
  0
XRECORD
  5
10056
102
{ACAD_REACTORS
330
C
102
}
330
C
100
AcDbXrecord
280
     1
300
ACDMAC
300
2014
300
ACD_F_S
  0
DICTIONARY
  5
10035
102
{ACAD_REACTORS
330
C
102
}
330
C
100
AcDbDictionary
281
     1
  0
DICTIONARY
  5
1004E
102
{ACAD_REACTORS
330
C
102
}
330
C
100
AcDbDictionary
281
     1
  3
Imperial24
350
1006C
  3
Metric50
350
1004F
  0
DICTIONARY
  5
D
330
C
100
AcDbDictionary
281
     1
  3
*A1
350
1005F
  0
DICTIONARY
  5
10050
102
{ACAD_REACTORS
330
C
102
}
330
C
100
AcDbDictionary
281
     1
  3
Layout1
350
10053
  3
Model
350
10052
  0
DICTIONARY
  5
10003
102
{ACAD_REACTORS
330
C
102
}
330
C
100
AcDbDictionary
281
     1
  3
ByBlock
350
1000C
  3
ByLayer
350
10004
  3
Global
350
10014
  0
DICTIONARY
  5
1004A
102
{ACAD_REACTORS
330
C
102
}
330
C
100
AcDbDictionary
281
     1
  3
Standard
350
1004B
  0
DICTIONARY
  5
17
330
C
100
AcDbDictionary
281
     1
  3
Standard
350
10068
  0
DICTIONARY
  5
10051
102
{ACAD_REACTORS
330
C
102
}
330
C
100
AcDbDictionary
281
     1
  0
ACDBDICTIONARYWDFLT
  5
10001
102
{ACAD_REACTORS
330
C
102
}
330
C
100
AcDbDictionary
281
     1
  3
Normal
350
10002
100
AcDbDictionaryWithDefault
340
10002
  0
DICTIONARY
  5
10038
102
{ACAD_REACTORS
330
C
102
}
330
C
100
AcDbDictionary
281
     1
  3
A0
350
10039
  3
A1
350
1003A
  3
A2
350
1003B
  3
A3
350
1003C
  3
A4
350
1003D
  3
A5
350
1003E
  3
A6
350
1003F
  3
A7
350
10040
  3
A8
350
10041
  3
A9
350
10042
  3
B0
350
10043
  3
B1
350
10044
  3
B2
350
10045
  3
B3
350
10046
  3
B4
350
10047
  3
B5
350
10048
  3
B6
350
10049
  0
DICTIONARY
  5
1004C
102
{ACAD_REACTORS
330
C
102
}
330
C
100
AcDbDictionary
281
     1
  3
Imperial24
350
1006B
  3
Metric50
350
1004D
  0
DICTIONARY
  5
10036
102
{ACAD_REACTORS
330
C
102
}
330
C
100
AcDbDictionary
281
     1
  3
Standard
350
10037
  0
DICTIONARY
  5
1001C
102
{ACAD_REACTORS
330
C
102
}
330
C
100
AcDbDictionary
281
     1
  3
2dWireframe
350
10022
  3
Basic
350
10021
  3
Brighten
350
10028
  3
ColorChange
350
1002C
  3
Conceptual
350
10025
  3
Dim
350
10027
  3
EdgeColorOff
350
10034
  3
Facepattern
350
1002B
  3
Flat
350
1001D
  3
FlatWithEdges
350
1001E
  3
Gouraud
350
1001F
  3
GouraudWithEdges
350
10020
  3
Hidden
350
10024
  3
JitterOff
350
10032
  3
Linepattern
350
1002A
  3
OverhangOff
350
10033
  3
Realistic
350
10026
  3
Shaded
350
10031
  3
Shaded with edges
350
10030
  3
Shades of Gray
350
1002D
  3
Sketchy
350
1002E
  3
Thicken
350
10029
  3
Wireframe
350
10023
  3
X-Ray
350
1002F
  0
XRECORD
  5
1021E
102
{ACAD_REACTORS
330
C
102
}
330
C
100
AcDbXrecord
280
     1
 90
        1
330
10037
330
1004D
330
1004F
330
1006B
330
1006C
  0
DICTIONARY
  5
10100
102
{ACAD_REACTORS
330
C
102
}
330
C
100
AcDbDictionary
281
     1
  3
CANNOSCALE
350
10106
  3
CMLEADERSTYLE
350
10102
  3
CTABLESTYLE
350
10101
  3
CVIEWDETAILSTYLE
350
10103
  3
CVIEWSECTIONSTYLE
350
10104
  3
LAYEREVAL
350
10108
  3
LAYERNOTIFY
350
10109
  3
LIGHTINGUNITS
350
10107
  3
MSLTSCALE
350
10105
  0
DICTIONARY
  5
1006A
102
{ACAD_REACTORS
330
10069
102
}
330
10069
100
AcDbDictionary
281
     1
  0
XRECORD
  5
100A6
102
{ACAD_REACTORS
330
100A5
102
}
330
100A5
100
AcDbXrecord
280
     1
290
     1
  0
ACDBDETAILVIEWSTYLE
  5
1006C
102
{ACAD_XDICTIONARY
360
100FD
102
}
102
{ACAD_REACTORS
330
1004E
102
}
330
1004E
100
AcDbModelDocViewStyle
 70
     0
  3
Imperial24
290
     0
100
AcDbDetailViewStyle
 70
     0
 71
     0
 90
        3
 71
     1
340
11
 62
   256
 40
0.24
340
0
 62
   256
 40
0.24
300

 40
0.36
280
     3
 71
     2
340
16
 90
       25
 62
   256
 71
     3
340
11
 62
   256
 40
0.24
 90
        1
 40
0.75
 90
        1
300
%<\AcVar ViewType \f "%tc1">% %<\AcVar ViewDetailId>%\PSCALE %<\AcVar ViewScale \f "%sn">%
 71
     4
340
16
 90
       25
 62
   256
340
16
 90
       25
 62
   256
280
     0
  0
ACDBDETAILVIEWSTYLE
  5
1004F
102
{ACAD_XDICTIONARY
360
100F9
102
}
102
{ACAD_REACTORS
330
1004E
102
}
330
1004E
100
AcDbModelDocViewStyle
 70
     0
  3
Metric50
290
     0
100
AcDbDetailViewStyle
 70
     0
 71
     0
 90
        3
 71
     1
340
11
 62
   256
 40
5.0
340
0
 62
   256
 40
5.0
300

 40
0.0
280
     1
 71
     2
340
16
 90
       25
 62
   256
 71
     3
340
11
 62
   256
 40
5.0
 90
        0
 40
15.0
 90
        1
300
%<\AcVar ViewDetailId>% (%<\AcVar ViewScale \f "%sn">%)
 71
     4
340
16
 90
       25
 62
   256
340
16
 90
       25
 62
   256
280
     0
  0
GROUP
  5
1005F
102
{ACAD_REACTORS
330
D
102
}
330
D
100
AcDbGroup
300

 70
     1
 71
     1
340
104
  0
LAYOUT
  5
10053
102
{ACAD_REACTORS
330
10050
102
}
330
10050
100
AcDbPlotSettings
  1

  2
RCA_PrintBitch
  4

  6

 40
0.0
 41
0.0
 42
0.0
 43
0.0
 44
0.0
 45
0.0
 46
0.0
 47
0.0
 48
0.0
 49
0.0
140
0.0
141
0.0
142
1.0
143
1.0
 70
   688
 72
     0
 73
     0
 74
     5
  7

 75
    16
147
1.0
 76
     0
 77
     2
 78
   300
148
0.0
149
0.0
100
AcDbLayout
  1
Layout1
 70
     1
 71
     1
 10
0.0
 20
0.0
 11
12.0
 21
9.0
 12
0.0
 22
0.0
 32
0.0
 14
1.000000000000000E+20
 24
1.000000000000000E+20
 34
1.000000000000000E+20
 15
-1.000000000000000E+20
 25
-1.000000000000000E+20
 35
-1.000000000000000E+20
146
0.0
 13
0.0
 23
0.0
 33
0.0
 16
1.0
 26
0.0
 36
0.0
 17
0.0
 27
1.0
 37
0.0
 76
     0
330
1B
  0
LAYOUT
  5
10052
102
{ACAD_REACTORS
330
10050
102
}
330
10050
100
AcDbPlotSettings
  1

  2
RCA_PrintBitch
  4

  6

 40
0.0
 41
0.0
 42
0.0
 43
0.0
 44
0.0
 45
0.0
 46
0.0
 47
0.0
 48
0.0
 49
0.0
140
0.0
141
0.0
142
1.0
143
1.0
 70
  1712
 72
     0
 73
     0
 74
     0
  7

 75
     0
147
1.0
 76
     0
 77
     2
 78
   300
148
0.0
149
0.0
100
AcDbLayout
  1
Model
 70
     1
 71
     0
 10
0.0
 20
0.0
 11
12.0
 21
9.0
 12
0.0
 22
0.0
 32
0.0
 14
0.0
 24
0.0
 34
0.0
 15
0.0
 25
0.0
 35
0.0
146
0.0
 13
0.0
 23
0.0
 33
0.0
 16
1.0
 26
0.0
 36
0.0
 17
0.0
 27
1.0
 37
0.0
 76
     0
330
1F
331
2E
  0
MATERIAL
  5
1000C
102
{ACAD_XDICTIONARY
360
1000D
102
}
102
{ACAD_REACTORS
330
10003
102
}
330
10003
100
AcDbMaterial
  1
ByBlock
 72
     0
 43
0.0208333333333333
 43
0.0
 43
0.0
 43
0.0
 43
0.0
 43
0.0208333333333333
 43
0.0
 43
0.0
 43
0.0
 43
0.0
 43
1.0
 43
0.0
 43
0.0
 43
0.0
 43
0.0
 43
1.0
 77
     0
 47
0.0208333333333333
 47
0.0
 47
0.0
 47
0.0
 47
0.0
 47
0.0208333333333333
 47
0.0
 47
0.0
 47
0.0
 47
0.0
 47
1.0
 47
0.0
 47
0.0
 47
0.0
 47
0.0
 47
1.0
171
     0
 49
0.0208333333333333
 49
0.0
 49
0.0
 49
0.0
 49
0.0
 49
0.0208333333333333
 49
0.0
 49
0.0
 49
0.0
 49
0.0
 49
1.0
 49
0.0
 49
0.0
 49
0.0
 49
0.0
 49
1.0
175
     0
142
0.0208333333333333
142
0.0
142
0.0
142
0.0
142
0.0
142
0.0208333333333333
142
0.0
142
0.0
142
0.0
142
0.0
142
1.0
142
0.0
142
0.0
142
0.0
142
0.0
142
1.0
179
     0
144
0.0208333333333333
144
0.0
144
0.0
144
0.0
144
0.0
144
0.0208333333333333
144
0.0
144
0.0
144
0.0
144
0.0
144
1.0
144
0.0
144
0.0
144
0.0
144
0.0
144
1.0
147
0.0208333333333333
147
0.0
147
0.0
147
0.0
147
0.0
147
0.0208333333333333
147
0.0
147
0.0
147
0.0
147
0.0
147
1.0
147
0.0
147
0.0
147
0.0
147
0.0
147
1.0
  0
MATERIAL
  5
10004
102
{ACAD_XDICTIONARY
360
10005
102
}
102
{ACAD_REACTORS
330
10003
102
}
330
10003
100
AcDbMaterial
  1
ByLayer
 72
     0
 43
0.0208333333333333
 43
0.0
 43
0.0
 43
0.0
 43
0.0
 43
0.0208333333333333
 43
0.0
 43
0.0
 43
0.0
 43
0.0
 43
1.0
 43
0.0
 43
0.0
 43
0.0
 43
0.0
 43
1.0
 77
     0
 47
0.0208333333333333
 47
0.0
 47
0.0
 47
0.0
 47
0.0
 47
0.0208333333333333
 47
0.0
 47
0.0
 47
0.0
 47
0.0
 47
1.0
 47
0.0
 47
0.0
 47
0.0
 47
0.0
 47
1.0
171
     0
 49
0.0208333333333333
 49
0.0
 49
0.0
 49
0.0
 49
0.0
 49
0.0208333333333333
 49
0.0
 49
0.0
 49
0.0
 49
0.0
 49
1.0
 49
0.0
 49
0.0
 49
0.0
 49
0.0
 49
1.0
175
     0
142
0.0208333333333333
142
0.0
142
0.0
142
0.0
142
0.0
142
0.0208333333333333
142
0.0
142
0.0
142
0.0
142
0.0
142
1.0
142
0.0
142
0.0
142
0.0
142
0.0
142
1.0
179
     0
144
0.0208333333333333
144
0.0
144
0.0
144
0.0
144
0.0
144
0.0208333333333333
144
0.0
144
0.0
144
0.0
144
0.0
144
1.0
144
0.0
144
0.0
144
0.0
144
0.0
144
1.0
147
0.0208333333333333
147
0.0
147
0.0
147
0.0
147
0.0
147
0.0208333333333333
147
0.0
147
0.0
147
0.0
147
0.0
147
1.0
147
0.0
147
0.0
147
0.0
147
0.0
147
1.0
  0
MATERIAL
  5
10014
102
{ACAD_XDICTIONARY
360
10015
102
}
102
{ACAD_REACTORS
330
10003
102
}
330
10003
100
AcDbMaterial
  1
Global
 72
     0
 43
0.0208333333333333
 43
0.0
 43
0.0
 43
0.0
 43
0.0
 43
0.0208333333333333
 43
0.0
 43
0.0
 43
0.0
 43
0.0
 43
1.0
 43
0.0
 43
0.0
 43
0.0
 43
0.0
 43
1.0
 77
     0
 47
0.0208333333333333
 47
0.0
 47
0.0
 47
0.0
 47
0.0
 47
0.0208333333333333
 47
0.0
 47
0.0
 47
0.0
 47
0.0
 47
1.0
 47
0.0
 47
0.0
 47
0.0
 47
0.0
 47
1.0
171
     0
 49
0.0208333333333333
 49
0.0
 49
0.0
 49
0.0
 49
0.0
 49
0.0208333333333333
 49
0.0
 49
0.0
 49
0.0
 49
0.0
 49
1.0
 49
0.0
 49
0.0
 49
0.0
 49
0.0
 49
1.0
175
     0
142
0.0208333333333333
142
0.0
142
0.0
142
0.0
142
0.0
142
0.0208333333333333
142
0.0
142
0.0
142
0.0
142
0.0
142
1.0
142
0.0
142
0.0
142
0.0
142
0.0
142
1.0
179
     0
144
0.0208333333333333
144
0.0
144
0.0
144
0.0
144
0.0
144
0.0208333333333333
144
0.0
144
0.0
144
0.0
144
0.0
144
1.0
144
0.0
144
0.0
144
0.0
144
0.0
144
1.0
147
0.0208333333333333
147
0.0
147
0.0
147
0.0
147
0.0
147
0.0208333333333333
147
0.0
147
0.0
147
0.0
147
0.0
147
1.0
147
0.0
147
0.0
147
0.0
147
0.0
147
1.0
  0
MLEADERSTYLE
  5
1004B
102
{ACAD_REACTORS
330
1004A
102
}
330
1004A
100
AcDbMLeaderStyle
179
     2
170
     2
171
     1
172
     0
 90
        2
 40
0.0
 41
0.0
173
     1
 91
-1056964608
340
14
 92
       -2
290
     1
 42
2.0
291
     1
 43
0.36
  3
Standard
 44
4.0
300

342
11
174
     1
178
     6
175
     1
176
     0
 93
-1056964608
 45
4.0
292
     0
297
     0
 46
4.0
 94
-1056964608
 47
1.0
 49
1.0
140
1.0
293
     1
141
0.0
294
     1
177
     0
142
1.0
295
     0
296
     0
143
0.125
271
     0
272
     9
273
     9
298
     0
  0
MLINESTYLE
  5
10068
102
{ACAD_REACTORS
330
17
102
}
330
17
100
AcDbMlineStyle
  2
STANDARD
 70
     0
  3

 62
   256
 51
90.0
 52
90.0
 71
     2
 49
0.5
 62
   256
  6
BYLAYER
 49
-0.5
 62
   256
  6
BYLAYER
  0
ACDBPLACEHOLDER
  5
10002
102
{ACAD_REACTORS
330
10001
102
}
330
10001
  0
SCALE
  5
10039
102
{ACAD_REACTORS
330
10038
102
}
330
10038
100
AcDbScale
 70
     0
300
1:1
140
1.0
141
1.0
290
     1
  0
SCALE
  5
1003A
102
{ACAD_REACTORS
330
10038
102
}
330
10038
100
AcDbScale
 70
     0
300
1:2
140
1.0
141
2.0
290
     0
  0
SCALE
  5
1003B
102
{ACAD_REACTORS
330
10038
102
}
330
10038
100
AcDbScale
 70
     0
300
1:4
140
1.0
141
4.0
290
     0
  0
SCALE
  5
1003C
102
{ACAD_REACTORS
330
10038
102
}
330
10038
100
AcDbScale
 70
     0
300
1:5
140
1.0
141
5.0
290
     0
  0
SCALE
  5
1003D
102
{ACAD_REACTORS
330
10038
102
}
330
10038
100
AcDbScale
 70
     0
300
1:8
140
1.0
141
8.0
290
     0
  0
SCALE
  5
1003E
102
{ACAD_REACTORS
330
10038
102
}
330
10038
100
AcDbScale
 70
     0
300
1:10
140
1.0
141
10.0
290
     0
  0
SCALE
  5
1003F
102
{ACAD_REACTORS
330
10038
102
}
330
10038
100
AcDbScale
 70
     0
300
1:16
140
1.0
141
16.0
290
     0
  0
SCALE
  5
10040
102
{ACAD_REACTORS
330
10038
102
}
330
10038
100
AcDbScale
 70
     0
300
1:20
140
1.0
141
20.0
290
     0
  0
SCALE
  5
10041
102
{ACAD_REACTORS
330
10038
102
}
330
10038
100
AcDbScale
 70
     0
300
1:30
140
1.0
141
30.0
290
     0
  0
SCALE
  5
10042
102
{ACAD_REACTORS
330
10038
102
}
330
10038
100
AcDbScale
 70
     0
300
1:40
140
1.0
141
40.0
290
     0
  0
SCALE
  5
10043
102
{ACAD_REACTORS
330
10038
102
}
330
10038
100
AcDbScale
 70
     0
300
1:50
140
1.0
141
50.0
290
     0
  0
SCALE
  5
10044
102
{ACAD_REACTORS
330
10038
102
}
330
10038
100
AcDbScale
 70
     0
300
1:100
140
1.0
141
100.0
290
     0
  0
SCALE
  5
10045
102
{ACAD_REACTORS
330
10038
102
}
330
10038
100
AcDbScale
 70
     0
300
2:1
140
2.0
141
1.0
290
     0
  0
SCALE
  5
10046
102
{ACAD_REACTORS
330
10038
102
}
330
10038
100
AcDbScale
 70
     0
300
4:1
140
4.0
141
1.0
290
     0
  0
SCALE
  5
10047
102
{ACAD_REACTORS
330
10038
102
}
330
10038
100
AcDbScale
 70
     0
300
8:1
140
8.0
141
1.0
290
     0
  0
SCALE
  5
10048
102
{ACAD_REACTORS
330
10038
102
}
330
10038
100
AcDbScale
 70
     0
300
10:1
140
10.0
141
1.0
290
     0
  0
SCALE
  5
10049
102
{ACAD_REACTORS
330
10038
102
}
330
10038
100
AcDbScale
 70
     0
300
100:1
140
100.0
141
1.0
290
     0
  0
ACDBSECTIONVIEWSTYLE
  5
1006B
102
{ACAD_XDICTIONARY
360
100FB
102
}
102
{ACAD_REACTORS
330
1004C
102
}
330
1004C
100
AcDbModelDocViewStyle
 70
     0
  3
Imperial24
290
     0
100
AcDbSectionViewStyle
 70
     0
 71
     0
 90
       78
 71
     1
340
11
 62
   256
 40
0.24
340
0
340
0
 62
   256
 40
0.24
300
I, O, Q, S, X, Z
 40
0.48
 90
        3
 40
0.18
 90
        1
 71
     2
340
16
 90
       25
 62
   256
340
16
 90
       50
 62
   256
 40
0.24
 40
0.0
 40
0.24
 71
     3
340
11
 62
   256
 40
0.24
 90
        1
 40
0.75
 90
        1
300
%<\AcVar ViewType \f "%tc1">% %<\AcVar ViewSectionStartId>%-%<\AcVar ViewSectionEndId>%\PSCALE %<\AcVar ViewScale \f "%sn">%
 71
     4
 62
   256
 62
   257
300
ANSI31
 40
1.0
 90
        0
290
     0
290
     0
 90
        6
 40
0.0
 40
1.570796326794896
 40
0.2617993877991494
 40
1.308996938995747
 40
-0.2617993877991494
 40
1.832595714594046
  0
ACDBSECTIONVIEWSTYLE
  5
1004D
102
{ACAD_XDICTIONARY
360
100F7
102
}
102
{ACAD_REACTORS
330
1004C
102
}
330
1004C
100
AcDbModelDocViewStyle
 70
     0
  3
Metric50
290
     0
100
AcDbSectionViewStyle
 70
     0
 71
     0
 90
      102
 71
     1
340
11
 62
   256
 40
5.0
340
0
340
0
 62
   256
 40
5.0
300
I, O, Q, S, X, Z
 40
10.0
 90
        0
 40
2.5
 90
        0
 71
     2
340
16
 90
       25
 62
   256
340
16
 90
       50
 62
   256
 40
5.0
 40
2.5
 40
5.0
 71
     3
340
11
 62
   256
 40
5.0
 90
        0
 40
15.0
 90
        1
300
%<\AcVar ViewSectionStartId>%-%<\AcVar ViewSectionEndId>% (%<\AcVar ViewScale \f "%sn">%)
 71
     4
 62
   256
 62
   257
300
ANSI31
 40
1.0
 90
        0
290
     0
290
     0
 90
        6
 40
0.0
 40
1.570796326794896
 40
0.2617993877991494
 40
1.308996938995747
 40
-0.2617993877991494
 40
1.832595714594046
  0
TABLESTYLE
  5
10037
102
{ACAD_XDICTIONARY
360
10218
102
}
102
{ACAD_REACTORS
330
10036
102
}
330
10036
100
AcDbTableStyle
280
     0
  3
Standard
 70
     0
 71
     0
 40
1.5
 41
1.5
280
     0
281
     0
  7
STANDARD
140
4.5
170
     2
 62
     0
 63
     7
283
     0
 90
      512
 91
        0
  1

274
    -2
284
     1
 64
     0
275
    -2
285
     1
 65
     0
276
    -2
286
     1
 66
     0
277
    -2
287
     1
 67
     0
278
    -2
288
     1
 68
     0
279
    -2
289
     1
 69
     0
  7
STANDARD
140
6.0
170
     5
 62
     0
 63
     7
283
     0
 90
      512
 91
        0
  1

274
    -2
284
     1
 64
     0
275
    -2
285
     1
 65
     0
276
    -2
286
     1
 66
     0
277
    -2
287
     1
 67
     0
278
    -2
288
     1
 68
     0
279
    -2
289
     1
 69
     0
  7
STANDARD
140
4.5
170
     5
 62
     0
 63
     7
283
     0
 90
      512
 91
        0
  1

274
    -2
284
     1
 64
     0
275
    -2
285
     1
 65
     0
276
    -2
286
     1
 66
     0
277
    -2
287
     1
 67
     0
278
    -2
288
     1
 68
     0
279
    -2
289
     1
 69
     0
  0
VISUALSTYLE
  5
10022
102
{ACAD_REACTORS
330
1001C
102
}
330
1001C
100
AcDbVisualStyle
  2
2dWireframe
 70
     4
177
     3
291
     0
 70
    58
 90
        0
176
     1
 90
        2
176
     1
 90
        0
176
     1
 90
        0
176
     1
 40
0.6
176
     1
 40
30.0
176
     1
 62
     7
420
 16777215
176
     1
 90
        1
176
     1
 90
        4
176
     1
 62
     7
176
     1
 62
   257
176
     1
 90
        1
176
     1
 90
        1
176
     1
 40
1.0
176
     1
 90
        0
176
     1
 62
   257
176
     1
 40
1.0
176
     1
 90
        1
176
     1
 90
        6
176
     1
 90
        2
176
     1
 62
     7
176
     1
 90
        5
176
     1
 90
        0
176
     1
 90
        0
176
     1
290
     0
176
     1
 90
        1
176
     1
 40
0.0
176
     1
 90
        0
176
     1
290
     1
176
     1
290
     1
176
     1
290
     0
176
     1
290
     0
176
     1
290
     0
176
     1
290
     0
176
     1
290
     0
176
     1
290
     0
176
     1
290
     0
176
     1
 90
       50
176
     1
 40
0.0
176
     1
 40
1.0
176
     1
 90
        0
176
     1
 62
    18
420
        0
176
     1
 90
       50
176
     1
 90
        3
176
     1
 62
     5
420
      255
176
     1
290
     0
176
     1
 90
       50
176
     1
 90
       50
176
     1
 90
       50
176
     1
290
     0
176
     1
 90
       50
176
     1
 62
   256
176
     0
 40
1.0
176
     0
 90
        2
176
     1
  1
strokes_ogs.tif
176
     1
290
     0
176
     1
 40
1.0
176
     1
 40
1.0
176
     1
  0
VISUALSTYLE
  5
10021
102
{ACAD_REACTORS
330
1001C
102
}
330
1001C
100
AcDbVisualStyle
  2
Basic
 70
     7
177
     3
291
     1
 70
    58
 90
        1
176
     1
 90
        0
176
     1
 90
        1
176
     1
 90
        0
176
     1
 40
0.6
176
     1
 40
30.0
176
     1
 62
     7
420
 16777215
176
     1
 90
        0
176
     1
 90
        4
176
     1
 62
     7
176
     1
 62
   257
176
     1
 90
        1
176
     1
 90
        1
176
     1
 40
1.0
176
     1
 90
        8
176
     1
 62
     7
176
     1
 40
1.0
176
     1
 90
        1
176
     1
 90
        6
176
     1
 90
        2
176
     1
 62
     7
176
     1
 90
        5
176
     1
 90
        0
176
     1
 90
        0
176
     1
290
     0
176
     1
 90
        1
176
     1
 40
0.0
176
     1
 90
        0
176
     1
290
     0
176
     1
290
     1
176
     1
290
     1
176
     1
290
     0
176
     1
290
     0
176
     1
290
     0
176
     1
290
     0
176
     1
290
     0
176
     1
290
     0
176
     1
 90
       50
176
     1
 40
0.0
176
     1
 40
1.0
176
     1
 90
        0
176
     1
 62
    18
420
        0
176
     1
 90
       50
176
     1
 90
        3
176
     1
 62
     5
420
      255
176
     1
290
     0
176
     1
 90
       50
176
     1
 90
       50
176
     1
 90
       50
176
     1
290
     0
176
     1
 90
       50
176
     1
 62
   256
176
     0
 40
1.0
176
     0
 90
        2
176
     1
  1
strokes_ogs.tif
176
     1
290
     0
176
     1
 40
1.0
176
     1
 40
1.0
176
     1
  0
VISUALSTYLE
  5
10028
102
{ACAD_REACTORS
330
1001C
102
}
330
1001C
100
AcDbVisualStyle
  2
Brighten
 70
    12
177
     3
291
     1
 70
    58
 90
        2
176
     1
 90
        2
176
     1
 90
        0
176
     1
 90
        0
176
     1
 40
0.6
176
     1
 40
30.0
176
     1
 62
     7
420
 16777215
176
     1
 90
        1
176
     1
 90
        4
176
     1
 62
     7
176
     1
 62
   257
176
     1
 90
        1
176
     1
 90
        1
176
     1
 40
1.0
176
     1
 90
        8
176
     1
 62
     7
176
     1
 40
1.0
176
     1
 90
        1
176
     1
 90
        6
176
     1
 90
        2
176
     1
 62
     7
176
     1
 90
        5
176
     1
 90
        0
176
     1
 90
        0
176
     1
290
     0
176
     1
 90
        1
176
     1
 40
50.0
176
     1
 90
        0
176
     1
290
     0
176
     1
290
     1
176
     1
290
     1
176
     1
290
     0
176
     1
290
     0
176
     1
290
     0
176
     1
290
     0
176
     1
290
     0
176
     1
290
     0
176
     1
 90
       50
176
     1
 40
0.0
176
     1
 40
1.0
176
     1
 90
        0
176
     1
 62
    18
420
        0
176
     1
 90
       50
176
     1
 90
        3
176
     1
 62
     5
420
      255
176
     1
290
     0
176
     1
 90
       50
176
     1
 90
       50
176
     1
 90
       50
176
     1
290
     0
176
     1
 90
       50
176
     1
 62
   256
176
     0
 40
1.0
176
     0
 90
        2
176
     1
  1
strokes_ogs.tif
176
     1
290
     0
176
     1
 40
1.0
176
     1
 40
1.0
176
     1
  0
VISUALSTYLE
  5
1002C
102
{ACAD_REACTORS
330
1001C
102
}
330
1001C
100
AcDbVisualStyle
  2
ColorChange
 70
    16
177
     3
291
     1
 70
    58
 90
        2
176
     1
 90
        2
176
     1
 90
        3
176
     1
 90
        0
176
     1
 40
0.6
176
     1
 40
30.0
176
     1
 62
     8
420
  8421504
176
     1
 90
        1
176
     1
 90
        4
176
     1
 62
     7
176
     1
 62
   257
176
     1
 90
        1
176
     1
 90
        1
176
     1
 40
1.0
176
     1
 90
        8
176
     1
 62
     8
420
  8421504
176
     1
 40
1.0
176
     1
 90
        1
176
     1
 90
        6
176
     1
 90
        2
176
     1
 62
     7
176
     1
 90
        5
176
     1
 90
        0
176
     1
 90
        0
176
     1
290
     0
176
     1
 90
        1
176
     1
 40
0.0
176
     1
 90
        0
176
     1
290
     0
176
     1
290
     1
176
     1
290
     1
176
     1
290
     0
176
     1
290
     0
176
     1
290
     0
176
     1
290
     0
176
     1
290
     0
176
     1
290
     0
176
     1
 90
       50
176
     1
 40
0.0
176
     1
 40
1.0
176
     1
 90
        0
176
     1
 62
    18
420
        0
176
     1
 90
       50
176
     1
 90
        3
176
     1
 62
     5
420
      255
176
     1
290
     0
176
     1
 90
       50
176
     1
 90
       50
176
     1
 90
       50
176
     1
290
     0
176
     1
 90
       50
176
     1
 62
   256
176
     0
 40
1.0
176
     0
 90
        2
176
     1
  1
strokes_ogs.tif
176
     1
290
     0
176
     1
 40
1.0
176
     1
 40
1.0
176
     1
  0
VISUALSTYLE
  5
10025
102
{ACAD_REACTORS
330
1001C
102
}
330
1001C
100
AcDbVisualStyle
  2
Conceptual
 70
     9
177
     3
291
     0
 70
    58
 90
        3
176
     1
 90
        2
176
     1
 90
        0
176
     1
 90
        0
176
     1
 40
0.6
176
     1
 40
30.0
176
     1
 62
     7
420
 16777215
176
     1
 90
        2
176
     1
 90
        2
176
     1
 62
     7
176
     1
 62
   257
176
     1
 90
        1
176
     1
 90
        1
176
     1
 40
179.0
176
     1
 90
        8
176
     1
 62
     7
176
     1
 40
1.0
176
     1
 90
        1
176
     1
 90
        6
176
     1
 90
        2
176
     1
 62
     7
176
     1
 90
        3
176
     1
 90
        0
176
     1
 90
        0
176
     1
290
     0
176
     1
 90
        1
176
     1
 40
0.0
176
     1
 90
        0
176
     1
290
     0
176
     1
290
     1
176
     1
290
     1
176
     1
290
     0
176
     1
290
     0
176
     1
290
     0
176
     1
290
     0
176
     1
290
     0
176
     1
290
     0
176
     1
 90
       50
176
     1
 40
0.0
176
     1
 40
1.0
176
     1
 90
        0
176
     1
 62
    18
420
        0
176
     1
 90
       50
176
     1
 90
        3
176
     1
 62
     5
420
      255
176
     1
290
     0
176
     1
 90
       50
176
     1
 90
       50
176
     1
 90
       50
176
     1
290
     0
176
     1
 90
       50
176
     1
 62
   256
176
     0
 40
1.0
176
     0
 90
        2
176
     1
  1
strokes_ogs.tif
176
     1
290
     0
176
     1
 40
1.0
176
     1
 40
1.0
176
     1
  0
VISUALSTYLE
  5
10027
102
{ACAD_REACTORS
330
1001C
102
}
330
1001C
100
AcDbVisualStyle
  2
Dim
 70
    11
177
     3
291
     1
 70
    58
 90
        2
176
     1
 90
        2
176
     1
 90
        0
176
     1
 90
        0
176
     1
 40
0.6
176
     1
 40
30.0
176
     1
 62
     7
420
 16777215
176
     1
 90
        1
176
     1
 90
        4
176
     1
 62
     7
176
     1
 62
   257
176
     1
 90
        1
176
     1
 90
        1
176
     1
 40
1.0
176
     1
 90
        8
176
     1
 62
     7
176
     1
 40
1.0
176
     1
 90
        1
176
     1
 90
        6
176
     1
 90
        2
176
     1
 62
     7
176
     1
 90
        5
176
     1
 90
        0
176
     1
 90
        0
176
     1
290
     0
176
     1
 90
        1
176
     1
 40
-50.0
176
     1
 90
        0
176
     1
290
     0
176
     1
290
     1
176
     1
290
     1
176
     1
290
     0
176
     1
290
     0
176
     1
290
     0
176
     1
290
     0
176
     1
290
     0
176
     1
290
     0
176
     1
 90
       50
176
     1
 40
0.0
176
     1
 40
1.0
176
     1
 90
        0
176
     1
 62
    18
420
        0
176
     1
 90
       50
176
     1
 90
        3
176
     1
 62
     5
420
      255
176
     1
290
     0
176
     1
 90
       50
176
     1
 90
       50
176
     1
 90
       50
176
     1
290
     0
176
     1
 90
       50
176
     1
 62
   256
176
     0
 40
1.0
176
     0
 90
        2
176
     1
  1
strokes_ogs.tif
176
     1
290
     0
176
     1
 40
1.0
176
     1
 40
1.0
176
     1
  0
VISUALSTYLE
  5
10034
102
{ACAD_REACTORS
330
1001C
102
}
330
1001C
100
AcDbVisualStyle
  2
EdgeColorOff
 70
    22
177
     3
291
     1
 70
    58
 90
        2
176
     0
 90
        2
176
     0
 90
        0
176
     0
 90
        0
176
     0
 40
0.6
176
     0
 40
30.0
176
     0
 62
     7
420
 16777215
176
     0
 90
        1
176
     0
 90
        4
176
     0
 62
     7
176
     0
 62
   257
176
     0
 90
        1
176
     0
 90
        1
176
     0
 40
1.0
176
     0
 90
        8
176
     2
 62
     7
176
     0
 40
1.0
176
     0
 90
        1
176
     0
 90
        6
176
     0
 90
        2
176
     0
 62
     7
176
     0
 90
        5
176
     0
 90
        0
176
     0
 90
        0
176
     0
290
     0
176
     0
 90
        1
176
     0
 40
0.0
176
     0
 90
        0
176
     0
290
     0
176
     1
290
     1
176
     1
290
     1
176
     1
290
     0
176
     1
290
     0
176
     1
290
     0
176
     1
290
     0
176
     1
290
     0
176
     1
290
     0
176
     1
 90
       50
176
     0
 40
0.0
176
     0
 40
1.0
176
     0
 90
        0
176
     0
 62
    18
420
        0
176
     0
 90
       50
176
     0
 90
        3
176
     0
 62
     5
420
      255
176
     0
290
     0
176
     1
 90
       50
176
     0
 90
       50
176
     0
 90
       50
176
     0
290
     0
176
     1
 90
       50
176
     0
 62
   256
176
     0
 40
1.0
176
     0
 90
        2
176
     0
  1
strokes_ogs.tif
176
     0
290
     0
176
     1
 40
1.0
176
     0
 40
1.0
176
     0
  0
VISUALSTYLE
  5
1002B
102
{ACAD_REACTORS
330
1001C
102
}
330
1001C
100
AcDbVisualStyle
  2
Facepattern
 70
    15
177
     3
291
     1
 70
    58
 90
        2
176
     1
 90
        2
176
     1
 90
        0
176
     1
 90
        0
176
     1
 40
0.6
176
     1
 40
30.0
176
     1
 62
     7
420
 16777215
176
     1
 90
        1
176
     1
 90
        4
176
     1
 62
     7
176
     1
 62
   257
176
     1
 90
        1
176
     1
 90
        1
176
     1
 40
1.0
176
     1
 90
        8
176
     1
 62
     7
176
     1
 40
1.0
176
     1
 90
        1
176
     1
 90
        6
176
     1
 90
        2
176
     1
 62
     7
176
     1
 90
        5
176
     1
 90
        0
176
     1
 90
        0
176
     1
290
     0
176
     1
 90
        1
176
     1
 40
0.0
176
     1
 90
        0
176
     1
290
     0
176
     1
290
     1
176
     1
290
     1
176
     1
290
     0
176
     1
290
     0
176
     1
290
     0
176
     1
290
     0
176
     1
290
     0
176
     1
290
     0
176
     1
 90
       50
176
     1
 40
0.0
176
     1
 40
1.0
176
     1
 90
        0
176
     1
 62
    18
420
        0
176
     1
 90
       50
176
     1
 90
        3
176
     1
 62
     5
420
      255
176
     1
290
     0
176
     1
 90
       50
176
     1
 90
       50
176
     1
 90
       50
176
     1
290
     0
176
     1
 90
       50
176
     1
 62
   256
176
     0
 40
1.0
176
     0
 90
        2
176
     1
  1
strokes_ogs.tif
176
     1
290
     0
176
     1
 40
1.0
176
     1
 40
1.0
176
     1
  0
VISUALSTYLE
  5
1001D
102
{ACAD_REACTORS
330
1001C
102
}
330
1001C
100
AcDbVisualStyle
  2
Flat
 70
     0
177
     3
291
     1
 70
    58
 90
        2
176
     1
 90
        1
176
     1
 90
        1
176
     1
 90
        2
176
     1
 40
0.6
176
     1
 40
30.0
176
     1
 62
     7
420
 16777215
176
     1
 90
        0
176
     1
 90
        0
176
     1
 62
     7
176
     1
 62
   257
176
     1
 90
        1
176
     1
 90
        1
176
     1
 40
1.0
176
     1
 90
        8
176
     1
 62
     7
176
     1
 40
1.0
176
     1
 90
        1
176
     1
 90
        6
176
     1
 90
        2
176
     1
 62
     7
176
     1
 90
        5
176
     1
 90
        0
176
     1
 90
        0
176
     1
290
     0
176
     1
 90
       13
176
     1
 40
0.0
176
     1
 90
        0
176
     1
290
     0
176
     1
290
     1
176
     1
290
     1
176
     1
290
     0
176
     1
290
     0
176
     1
290
     0
176
     1
290
     0
176
     1
290
     0
176
     1
290
     0
176
     1
 90
       50
176
     1
 40
0.0
176
     1
 40
1.0
176
     1
 90
        0
176
     1
 62
    18
420
        0
176
     1
 90
       50
176
     1
 90
        3
176
     1
 62
     5
420
      255
176
     1
290
     0
176
     1
 90
       50
176
     1
 90
       50
176
     1
 90
       50
176
     1
290
     0
176
     1
 90
       50
176
     1
 62
   256
176
     0
 40
1.0
176
     0
 90
        2
176
     1
  1
strokes_ogs.tif
176
     1
290
     0
176
     1
 40
1.0
176
     1
 40
1.0
176
     1
  0
VISUALSTYLE
  5
1001E
102
{ACAD_REACTORS
330
1001C
102
}
330
1001C
100
AcDbVisualStyle
  2
FlatWithEdges
 70
     1
177
     3
291
     1
 70
    58
 90
        2
176
     1
 90
        1
176
     1
 90
        1
176
     1
 90
        2
176
     1
 40
0.6
176
     1
 40
30.0
176
     1
 62
     7
420
 16777215
176
     1
 90
        1
176
     1
 90
        0
176
     1
 62
     7
176
     1
 62
   257
176
     1
 90
        1
176
     1
 90
        1
176
     1
 40
1.0
176
     1
 90
        0
176
     1
 62
   257
176
     1
 40
1.0
176
     1
 90
        1
176
     1
 90
        6
176
     1
 90
        2
176
     1
 62
     7
176
     1
 90
        5
176
     1
 90
        0
176
     1
 90
        0
176
     1
290
     0
176
     1
 90
       13
176
     1
 40
0.0
176
     1
 90
        0
176
     1
290
     0
176
     1
290
     1
176
     1
290
     1
176
     1
290
     0
176
     1
290
     0
176
     1
290
     0
176
     1
290
     0
176
     1
290
     0
176
     1
290
     0
176
     1
 90
       50
176
     1
 40
0.0
176
     1
 40
1.0
176
     1
 90
        0
176
     1
 62
    18
420
        0
176
     1
 90
       50
176
     1
 90
        3
176
     1
 62
     5
420
      255
176
     1
290
     0
176
     1
 90
       50
176
     1
 90
       50
176
     1
 90
       50
176
     1
290
     0
176
     1
 90
       50
176
     1
 62
   256
176
     0
 40
1.0
176
     0
 90
        2
176
     1
  1
strokes_ogs.tif
176
     1
290
     0
176
     1
 40
1.0
176
     1
 40
1.0
176
     1
  0
VISUALSTYLE
  5
1001F
102
{ACAD_REACTORS
330
1001C
102
}
330
1001C
100
AcDbVisualStyle
  2
Gouraud
 70
     2
177
     3
291
     1
 70
    58
 90
        2
176
     1
 90
        2
176
     1
 90
        1
176
     1
 90
        2
176
     1
 40
0.6
176
     1
 40
30.0
176
     1
 62
     7
420
 16777215
176
     1
 90
        0
176
     1
 90
        0
176
     1
 62
     7
176
     1
 62
   257
176
     1
 90
        1
176
     1
 90
        1
176
     1
 40
1.0
176
     1
 90
        0
176
     1
 62
     7
176
     1
 40
1.0
176
     1
 90
        1
176
     1
 90
        6
176
     1
 90
        2
176
     1
 62
     7
176
     1
 90
        5
176
     1
 90
        0
176
     1
 90
        0
176
     1
290
     0
176
     1
 90
       13
176
     1
 40
0.0
176
     1
 90
        0
176
     1
290
     0
176
     1
290
     1
176
     1
290
     1
176
     1
290
     0
176
     1
290
     0
176
     1
290
     0
176
     1
290
     0
176
     1
290
     0
176
     1
290
     0
176
     1
 90
       50
176
     1
 40
0.0
176
     1
 40
1.0
176
     1
 90
        0
176
     1
 62
    18
420
        0
176
     1
 90
       50
176
     1
 90
        3
176
     1
 62
     5
420
      255
176
     1
290
     0
176
     1
 90
       50
176
     1
 90
       50
176
     1
 90
       50
176
     1
290
     0
176
     1
 90
       50
176
     1
 62
   256
176
     0
 40
1.0
176
     0
 90
        2
176
     1
  1
strokes_ogs.tif
176
     1
290
     0
176
     1
 40
1.0
176
     1
 40
1.0
176
     1
  0
VISUALSTYLE
  5
10020
102
{ACAD_REACTORS
330
1001C
102
}
330
1001C
100
AcDbVisualStyle
  2
GouraudWithEdges
 70
     3
177
     3
291
     1
 70
    58
 90
        2
176
     1
 90
        2
176
     1
 90
        1
176
     1
 90
        2
176
     1
 40
0.6
176
     1
 40
30.0
176
     1
 62
     7
420
 16777215
176
     1
 90
        1
176
     1
 90
        0
176
     1
 62
     7
176
     1
 62
   257
176
     1
 90
        1
176
     1
 90
        1
176
     1
 40
1.0
176
     1
 90
        0
176
     1
 62
   257
176
     1
 40
1.0
176
     1
 90
        1
176
     1
 90
        6
176
     1
 90
        2
176
     1
 62
     7
176
     1
 90
        5
176
     1
 90
        0
176
     1
 90
        0
176
     1
290
     0
176
     1
 90
       13
176
     1
 40
0.0
176
     1
 90
        0
176
     1
290
     0
176
     1
290
     1
176
     1
290
     1
176
     1
290
     0
176
     1
290
     0
176
     1
290
     0
176
     1
290
     0
176
     1
290
     0
176
     1
290
     0
176
     1
 90
       50
176
     1
 40
0.0
176
     1
 40
1.0
176
     1
 90
        0
176
     1
 62
    18
420
        0
176
     1
 90
       50
176
     1
 90
        3
176
     1
 62
     5
420
      255
176
     1
290
     0
176
     1
 90
       50
176
     1
 90
       50
176
     1
 90
       50
176
     1
290
     0
176
     1
 90
       50
176
     1
 62
   256
176
     0
 40
1.0
176
     0
 90
        2
176
     1
  1
strokes_ogs.tif
176
     1
290
     0
176
     1
 40
1.0
176
     1
 40
1.0
176
     1
  0
VISUALSTYLE
  5
10024
102
{ACAD_REACTORS
330
1001C
102
}
330
1001C
100
AcDbVisualStyle
  2
Hidden
 70
     6
177
     3
291
     0
 70
    58
 90
        1
176
     1
 90
        2
176
     1
 90
        2
176
     1
 90
        0
176
     1
 40
0.6
176
     1
 40
30.0
176
     1
 62
     7
420
 16777215
176
     1
 90
        2
176
     1
 90
        2
176
     1
 62
     7
176
     1
 62
   257
176
     1
 90
        2
176
     1
 90
        1
176
     1
 40
40.0
176
     1
 90
        0
176
     1
 62
   257
176
     1
 40
1.0
176
     1
 90
        1
176
     1
 90
        6
176
     1
 90
        2
176
     1
 62
     7
176
     1
 90
        3
176
     1
 90
        0
176
     1
 90
        0
176
     1
290
     0
176
     1
 90
        1
176
     1
 40
0.0
176
     1
 90
        0
176
     1
290
     0
176
     1
290
     1
176
     1
290
     1
176
     1
290
     0
176
     1
290
     0
176
     1
290
     0
176
     1
290
     0
176
     1
290
     0
176
     1
290
     0
176
     1
 90
       50
176
     1
 40
0.0
176
     1
 40
1.0
176
     1
 90
        0
176
     1
 62
    18
420
        0
176
     1
 90
       50
176
     1
 90
        3
176
     1
 62
     5
420
      255
176
     1
290
     0
176
     1
 90
       50
176
     1
 90
       50
176
     1
 90
       50
176
     1
290
     0
176
     1
 90
       50
176
     1
 62
   256
176
     0
 40
1.0
176
     0
 90
        2
176
     1
  1
strokes_ogs.tif
176
     1
290
     0
176
     1
 40
1.0
176
     1
 40
1.0
176
     1
  0
VISUALSTYLE
  5
10032
102
{ACAD_REACTORS
330
1001C
102
}
330
1001C
100
AcDbVisualStyle
  2
JitterOff
 70
    20
177
     3
291
     1
 70
    58
 90
        2
176
     0
 90
        2
176
     0
 90
        0
176
     0
 90
        0
176
     0
 40
0.6
176
     0
 40
30.0
176
     0
 62
     7
420
 16777215
176
     0
 90
        1
176
     0
 90
        4
176
     0
 62
     7
176
     0
 62
   257
176
     0
 90
        1
176
     0
 90
        1
176
     0
 40
1.0
176
     0
 90
       10
176
     2
 62
     7
176
     0
 40
1.0
176
     0
 90
        1
176
     0
 90
        6
176
     0
 90
        2
176
     0
 62
     7
176
     0
 90
        5
176
     0
 90
        0
176
     0
 90
        0
176
     0
290
     0
176
     0
 90
        1
176
     0
 40
0.0
176
     0
 90
        0
176
     0
290
     0
176
     1
290
     1
176
     1
290
     1
176
     1
290
     0
176
     1
290
     0
176
     1
290
     0
176
     1
290
     0
176
     1
290
     0
176
     1
290
     0
176
     1
 90
       50
176
     0
 40
0.0
176
     0
 40
1.0
176
     0
 90
        0
176
     0
 62
    18
420
        0
176
     0
 90
       50
176
     0
 90
        3
176
     0
 62
     5
420
      255
176
     0
290
     0
176
     1
 90
       50
176
     0
 90
       50
176
     0
 90
       50
176
     0
290
     0
176
     1
 90
       50
176
     0
 62
   256
176
     0
 40
1.0
176
     0
 90
        2
176
     0
  1
strokes_ogs.tif
176
     0
290
     0
176
     1
 40
1.0
176
     0
 40
1.0
176
     0
  0
VISUALSTYLE
  5
1002A
102
{ACAD_REACTORS
330
1001C
102
}
330
1001C
100
AcDbVisualStyle
  2
Linepattern
 70
    14
177
     3
291
     1
 70
    58
 90
        2
176
     1
 90
        2
176
     1
 90
        0
176
     1
 90
        0
176
     1
 40
0.6
176
     1
 40
30.0
176
     1
 62
     7
420
 16777215
176
     1
 90
        1
176
     1
 90
        4
176
     1
 62
     7
176
     1
 62
   257
176
     1
 90
        7
176
     1
 90
        7
176
     1
 40
1.0
176
     1
 90
        8
176
     1
 62
     7
176
     1
 40
1.0
176
     1
 90
        1
176
     1
 90
        6
176
     1
 90
        2
176
     1
 62
     7
176
     1
 90
        5
176
     1
 90
        0
176
     1
 90
        0
176
     1
290
     0
176
     1
 90
        1
176
     1
 40
0.0
176
     1
 90
        0
176
     1
290
     0
176
     1
290
     1
176
     1
290
     1
176
     1
290
     0
176
     1
290
     0
176
     1
290
     0
176
     1
290
     0
176
     1
290
     0
176
     1
290
     0
176
     1
 90
       50
176
     1
 40
0.0
176
     1
 40
1.0
176
     1
 90
        0
176
     1
 62
    18
420
        0
176
     1
 90
       50
176
     1
 90
        3
176
     1
 62
     5
420
      255
176
     1
290
     0
176
     1
 90
       50
176
     1
 90
       50
176
     1
 90
       50
176
     1
290
     0
176
     1
 90
       50
176
     1
 62
   256
176
     0
 40
1.0
176
     0
 90
        2
176
     1
  1
strokes_ogs.tif
176
     1
290
     0
176
     1
 40
1.0
176
     1
 40
1.0
176
     1
  0
VISUALSTYLE
  5
10033
102
{ACAD_REACTORS
330
1001C
102
}
330
1001C
100
AcDbVisualStyle
  2
OverhangOff
 70
    21
177
     3
291
     1
 70
    58
 90
        2
176
     0
 90
        2
176
     0
 90
        0
176
     0
 90
        0
176
     0
 40
0.6
176
     0
 40
30.0
176
     0
 62
     7
420
 16777215
176
     0
 90
        1
176
     0
 90
        4
176
     0
 62
     7
176
     0
 62
   257
176
     0
 90
        1
176
     0
 90
        1
176
     0
 40
1.0
176
     0
 90
        9
176
     2
 62
     7
176
     0
 40
1.0
176
     0
 90
        1
176
     0
 90
        6
176
     0
 90
        2
176
     0
 62
     7
176
     0
 90
        5
176
     0
 90
        0
176
     0
 90
        0
176
     0
290
     0
176
     0
 90
        1
176
     0
 40
0.0
176
     0
 90
        0
176
     0
290
     0
176
     1
290
     1
176
     1
290
     1
176
     1
290
     0
176
     1
290
     0
176
     1
290
     0
176
     1
290
     0
176
     1
290
     0
176
     1
290
     0
176
     1
 90
       50
176
     0
 40
0.0
176
     0
 40
1.0
176
     0
 90
        0
176
     0
 62
    18
420
        0
176
     0
 90
       50
176
     0
 90
        3
176
     0
 62
     5
420
      255
176
     0
290
     0
176
     1
 90
       50
176
     0
 90
       50
176
     0
 90
       50
176
     0
290
     0
176
     1
 90
       50
176
     0
 62
   256
176
     0
 40
1.0
176
     0
 90
        2
176
     0
  1
strokes_ogs.tif
176
     0
290
     0
176
     1
 40
1.0
176
     0
 40
1.0
176
     0
  0
VISUALSTYLE
  5
10026
102
{ACAD_REACTORS
330
1001C
102
}
330
1001C
100
AcDbVisualStyle
  2
Realistic
 70
     8
177
     3
291
     0
 70
    58
 90
        2
176
     1
 90
        3
176
     1
 90
        0
176
     1
 90
        2
176
     1
 40
0.6
176
     1
 40
30.0
176
     1
 62
     7
420
 16777215
176
     1
 90
        0
176
     1
 90
        0
176
     1
 62
     7
176
     1
 62
   257
176
     1
 90
        1
176
     1
 90
        1
176
     1
 40
1.0
176
     1
 90
        8
176
     1
 62
   257
176
     1
 40
1.0
176
     1
 90
        1
176
     1
 90
        6
176
     1
 90
        2
176
     1
 62
     7
176
     1
 90
        3
176
     1
 90
        0
176
     1
 90
        0
176
     1
290
     0
176
     1
 90
       13
176
     1
 40
0.0
176
     1
 90
        0
176
     1
290
     0
176
     1
290
     1
176
     1
290
     1
176
     1
290
     0
176
     1
290
     0
176
     1
290
     0
176
     1
290
     0
176
     1
290
     0
176
     1
290
     0
176
     1
 90
       50
176
     1
 40
0.0
176
     1
 40
1.0
176
     1
 90
        0
176
     1
 62
    18
420
        0
176
     1
 90
       50
176
     1
 90
        3
176
     1
 62
     5
420
      255
176
     1
290
     0
176
     1
 90
       50
176
     1
 90
       50
176
     1
 90
       50
176
     1
290
     0
176
     1
 90
       50
176
     1
 62
   256
176
     0
 40
1.0
176
     0
 90
        2
176
     1
  1
strokes_ogs.tif
176
     1
290
     0
176
     1
 40
1.0
176
     1
 40
1.0
176
     1
  0
VISUALSTYLE
  5
10031
102
{ACAD_REACTORS
330
1001C
102
}
330
1001C
100
AcDbVisualStyle
  2
Shaded
 70
    27
177
     3
291
     0
 70
    58
 90
        2
176
     1
 90
        2
176
     1
 90
        1
176
     1
 90
        2
176
     1
 40
0.6
176
     1
 40
30.0
176
     1
 62
     7
420
 16777215
176
     1
 90
        0
176
     1
 90
        4
176
     1
 62
     7
176
     1
 62
   257
176
     1
 90
        1
176
     1
 90
        1
176
     1
 40
1.0
176
     1
 90
        8
176
     1
 62
   257
176
     1
 40
1.0
176
     1
 90
        1
176
     1
 90
        6
176
     1
 90
        2
176
     1
 62
     8
420
  7895160
176
     1
 90
        3
176
     1
 90
        0
176
     1
 90
        0
176
     1
290
     0
176
     1
 90
        5
176
     1
 40
0.0
176
     1
 90
        0
176
     1
290
     0
176
     1
290
     1
176
     1
290
     1
176
     1
290
     0
176
     1
290
     0
176
     1
290
     0
176
     1
290
     0
176
     1
290
     0
176
     1
290
     0
176
     1
 90
       50
176
     1
 40
0.0
176
     1
 40
1.0
176
     1
 90
        0
176
     1
 62
    18
420
        0
176
     1
 90
       50
176
     1
 90
        3
176
     1
 62
     5
420
      255
176
     1
290
     0
176
     1
 90
       50
176
     1
 90
       50
176
     1
 90
       50
176
     1
290
     0
176
     1
 90
       50
176
     1
 62
   256
176
     0
 40
1.0
176
     0
 90
        2
176
     1
  1
strokes_ogs.tif
176
     1
290
     0
176
     1
 40
1.0
176
     1
 40
1.0
176
     1
  0
VISUALSTYLE
  5
10030
102
{ACAD_REACTORS
330
1001C
102
}
330
1001C
100
AcDbVisualStyle
  2
Shaded with edges
 70
    26
177
     3
291
     0
 70
    58
 90
        2
176
     1
 90
        2
176
     1
 90
        1
176
     1
 90
        2
176
     1
 40
0.6
176
     1
 40
30.0
176
     1
 62
     7
420
 16777215
176
     1
 90
        1
176
     1
 90
       10
176
     1
 62
     7
176
     1
 62
   257
176
     1
 90
        2
176
     1
 90
        1
176
     1
 40
1.0
176
     1
 90
        8
176
     1
 62
   257
176
     1
 40
1.0
176
     1
 90
        1
176
     1
 90
        6
176
     1
 90
        2
176
     1
 62
     7
176
     1
 90
        3
176
     1
 90
        0
176
     1
 90
        0
176
     1
290
     0
176
     1
 90
        5
176
     1
 40
0.0
176
     1
 90
        0
176
     1
290
     0
176
     1
290
     1
176
     1
290
     1
176
     1
290
     0
176
     1
290
     0
176
     1
290
     0
176
     1
290
     0
176
     1
290
     0
176
     1
290
     0
176
     1
 90
       50
176
     1
 40
0.0
176
     1
 40
1.0
176
     1
 90
        0
176
     1
 62
    18
420
        0
176
     1
 90
       50
176
     1
 90
        3
176
     1
 62
     5
420
      255
176
     1
290
     0
176
     1
 90
       50
176
     1
 90
       50
176
     1
 90
       50
176
     1
290
     0
176
     1
 90
       50
176
     1
 62
   256
176
     0
 40
1.0
176
     0
 90
        2
176
     1
  1
strokes_ogs.tif
176
     1
290
     0
176
     1
 40
1.0
176
     1
 40
1.0
176
     1
  0
VISUALSTYLE
  5
1002D
102
{ACAD_REACTORS
330
1001C
102
}
330
1001C
100
AcDbVisualStyle
  2
Shades of Gray
 70
    23
177
     3
291
     0
 70
    58
 90
        2
176
     1
 90
        2
176
     1
 90
        3
176
     1
 90
        0
176
     1
 40
0.6
176
     1
 40
30.0
176
     1
 62
     7
420
 16777215
176
     1
 90
        2
176
     1
 90
        2
176
     1
 62
     7
176
     1
 62
     7
176
     1
 90
        1
176
     1
 90
        1
176
     1
 40
40.0
176
     1
 90
        8
176
     1
 62
     7
176
     1
 40
1.0
176
     1
 90
        1
176
     1
 90
        6
176
     1
 90
        2
176
     1
 62
     7
176
     1
 90
        3
176
     1
 90
        0
176
     1
 90
        0
176
     1
290
     0
176
     1
 90
        1
176
     1
 40
0.0
176
     1
 90
        0
176
     1
290
     0
176
     1
290
     1
176
     1
290
     1
176
     1
290
     0
176
     1
290
     0
176
     1
290
     0
176
     1
290
     0
176
     1
290
     0
176
     1
290
     0
176
     1
 90
       50
176
     1
 40
0.0
176
     1
 40
1.0
176
     1
 90
        0
176
     1
 62
    18
420
        0
176
     1
 90
       50
176
     1
 90
        3
176
     1
 62
     5
420
      255
176
     1
290
     0
176
     1
 90
       50
176
     1
 90
       50
176
     1
 90
       50
176
     1
290
     0
176
     1
 90
       50
176
     1
 62
   256
176
     0
 40
1.0
176
     0
 90
        2
176
     1
  1
strokes_ogs.tif
176
     1
290
     0
176
     1
 40
1.0
176
     1
 40
1.0
176
     1
  0
VISUALSTYLE
  5
1002E
102
{ACAD_REACTORS
330
1001C
102
}
330
1001C
100
AcDbVisualStyle
  2
Sketchy
 70
    24
177
     3
291
     0
 70
    58
 90
        1
176
     1
 90
        2
176
     1
 90
        2
176
     1
 90
        0
176
     1
 40
0.6
176
     1
 40
30.0
176
     1
 62
     7
420
 16777215
176
     1
 90
        2
176
     1
 90
        2
176
     1
 62
     7
176
     1
 62
     7
176
     1
 90
        1
176
     1
 90
        1
176
     1
 40
40.0
176
     1
 90
       11
176
     1
 62
     7
176
     1
 40
1.0
176
     1
 90
        1
176
     1
 90
        6
176
     1
 90
        2
176
     1
 62
     7
176
     1
 90
        6
176
     1
 90
        0
176
     1
 90
        0
176
     1
290
     0
176
     1
 90
        1
176
     1
 40
0.0
176
     1
 90
        0
176
     1
290
     0
176
     1
290
     1
176
     1
290
     1
176
     1
290
     0
176
     1
290
     0
176
     1
290
     0
176
     1
290
     0
176
     1
290
     0
176
     1
290
     0
176
     1
 90
       50
176
     1
 40
0.0
176
     1
 40
1.0
176
     1
 90
        0
176
     1
 62
    18
420
        0
176
     1
 90
       50
176
     1
 90
        3
176
     1
 62
     5
420
      255
176
     1
290
     0
176
     1
 90
       50
176
     1
 90
       50
176
     1
 90
       50
176
     1
290
     0
176
     1
 90
       50
176
     1
 62
   256
176
     0
 40
1.0
176
     0
 90
        2
176
     1
  1
strokes_ogs.tif
176
     1
290
     0
176
     1
 40
1.0
176
     1
 40
1.0
176
     1
  0
VISUALSTYLE
  5
10029
102
{ACAD_REACTORS
330
1001C
102
}
330
1001C
100
AcDbVisualStyle
  2
Thicken
 70
    13
177
     3
291
     1
 70
    58
 90
        2
176
     1
 90
        2
176
     1
 90
        0
176
     1
 90
        0
176
     1
 40
0.6
176
     1
 40
30.0
176
     1
 62
     7
420
 16777215
176
     1
 90
        1
176
     1
 90
        4
176
     1
 62
     7
176
     1
 62
   257
176
     1
 90
        1
176
     1
 90
        1
176
     1
 40
1.0
176
     1
 90
       12
176
     1
 62
     7
176
     1
 40
1.0
176
     1
 90
        1
176
     1
 90
        6
176
     1
 90
        2
176
     1
 62
     7
176
     1
 90
        5
176
     1
 90
        0
176
     1
 90
        0
176
     1
290
     0
176
     1
 90
        1
176
     1
 40
0.0
176
     1
 90
        0
176
     1
290
     0
176
     1
290
     1
176
     1
290
     1
176
     1
290
     0
176
     1
290
     0
176
     1
290
     0
176
     1
290
     0
176
     1
290
     0
176
     1
290
     0
176
     1
 90
       50
176
     1
 40
0.0
176
     1
 40
1.0
176
     1
 90
        0
176
     1
 62
    18
420
        0
176
     1
 90
       50
176
     1
 90
        3
176
     1
 62
     5
420
      255
176
     1
290
     0
176
     1
 90
       50
176
     1
 90
       50
176
     1
 90
       50
176
     1
290
     0
176
     1
 90
       50
176
     1
 62
   256
176
     0
 40
1.0
176
     0
 90
        2
176
     1
  1
strokes_ogs.tif
176
     1
290
     0
176
     1
 40
1.0
176
     1
 40
1.0
176
     1
  0
VISUALSTYLE
  5
10023
102
{ACAD_REACTORS
330
1001C
102
}
330
1001C
100
AcDbVisualStyle
  2
Wireframe
 70
     5
177
     3
291
     0
 70
    58
 90
        0
176
     1
 90
        2
176
     1
 90
        0
176
     1
 90
        0
176
     1
 40
0.6
176
     1
 40
30.0
176
     1
 62
     7
420
 16777215
176
     1
 90
        1
176
     1
 90
        4
176
     1
 62
     7
176
     1
 62
   257
176
     1
 90
        1
176
     1
 90
        1
176
     1
 40
1.0
176
     1
 90
        0
176
     1
 62
   257
176
     1
 40
1.0
176
     1
 90
        1
176
     1
 90
        6
176
     1
 90
        2
176
     1
 62
     7
176
     1
 90
        3
176
     1
 90
        0
176
     1
 90
        0
176
     1
290
     0
176
     1
 90
        1
176
     1
 40
0.0
176
     1
 90
        0
176
     1
290
     0
176
     1
290
     1
176
     1
290
     1
176
     1
290
     0
176
     1
290
     0
176
     1
290
     0
176
     1
290
     0
176
     1
290
     0
176
     1
290
     0
176
     1
 90
       50
176
     1
 40
0.0
176
     1
 40
1.0
176
     1
 90
        0
176
     1
 62
    18
420
        0
176
     1
 90
       50
176
     1
 90
        3
176
     1
 62
     5
420
      255
176
     1
290
     0
176
     1
 90
       50
176
     1
 90
       50
176
     1
 90
       50
176
     1
290
     0
176
     1
 90
       50
176
     1
 62
   256
176
     0
 40
1.0
176
     0
 90
        2
176
     1
  1
strokes_ogs.tif
176
     1
290
     0
176
     1
 40
1.0
176
     1
 40
1.0
176
     1
  0
VISUALSTYLE
  5
1002F
102
{ACAD_REACTORS
330
1001C
102
}
330
1001C
100
AcDbVisualStyle
  2
X-Ray
 70
    25
177
     3
291
     0
 70
    58
 90
        2
176
     1
 90
        2
176
     1
 90
        1
176
     1
 90
        1
176
     1
 40
0.5
176
     1
 40
30.0
176
     1
 62
     7
420
 16777215
176
     1
 90
        1
176
     1
 90
        0
176
     1
 62
     7
176
     1
 62
   257
176
     1
 90
        1
176
     1
 90
        1
176
     1
 40
1.0
176
     1
 90
        8
176
     1
 62
     7
176
     1
 40
1.0
176
     1
 90
        1
176
     1
 90
        6
176
     1
 90
        2
176
     1
 62
     7
176
     1
 90
        3
176
     1
 90
        0
176
     1
 90
        0
176
     1
290
     0
176
     1
 90
       13
176
     1
 40
0.0
176
     1
 90
        0
176
     1
290
     0
176
     1
290
     1
176
     1
290
     1
176
     1
290
     0
176
     1
290
     0
176
     1
290
     0
176
     1
290
     0
176
     1
290
     0
176
     1
290
     0
176
     1
 90
       50
176
     1
 40
0.0
176
     1
 40
1.0
176
     1
 90
        0
176
     1
 62
    18
420
        0
176
     1
 90
       50
176
     1
 90
        3
176
     1
 62
     5
420
      255
176
     1
290
     0
176
     1
 90
       50
176
     1
 90
       50
176
     1
 90
       50
176
     1
290
     0
176
     1
 90
       50
176
     1
 62
   256
176
     0
 40
1.0
176
     0
 90
        2
176
     1
  1
strokes_ogs.tif
176
     1
290
     0
176
     1
 40
1.0
176
     1
 40
1.0
176
     1
  0
DICTIONARYVAR
  5
10106
102
{ACAD_REACTORS
330
10100
102
}
330
10100
100
DictionaryVariables
280
     0
  1
1:1
  0
DICTIONARYVAR
  5
10102
102
{ACAD_REACTORS
330
10100
102
}
330
10100
100
DictionaryVariables
280
     0
  1
STANDARD
  0
DICTIONARYVAR
  5
10101
102
{ACAD_REACTORS
330
10100
102
}
330
10100
100
DictionaryVariables
280
     0
  1
STANDARD
  0
DICTIONARYVAR
  5
10103
102
{ACAD_REACTORS
330
10100
102
}
330
10100
100
DictionaryVariables
280
     0
  1
Metric50
  0
DICTIONARYVAR
  5
10104
102
{ACAD_REACTORS
330
10100
102
}
330
10100
100
DictionaryVariables
280
     0
  1
Metric50
  0
DICTIONARYVAR
  5
10108
102
{ACAD_REACTORS
330
10100
102
}
330
10100
100
DictionaryVariables
280
     0
  1
1
  0
DICTIONARYVAR
  5
10109
102
{ACAD_REACTORS
330
10100
102
}
330
10100
100
DictionaryVariables
280
     0
  1
15
  0
DICTIONARYVAR
  5
10107
102
{ACAD_REACTORS
330
10100
102
}
330
10100
100
DictionaryVariables
280
     0
  1
0
  0
DICTIONARYVAR
  5
10105
102
{ACAD_REACTORS
330
10100
102
}
330
10100
100
DictionaryVariables
280
     0
  1
0
  0
DICTIONARY
  5
100FD
330
1006C
100
AcDbDictionary
280
     1
281
     1
  3
ACAD_XREC_ROUNDTRIP
360
1021D
  0
DICTIONARY
  5
100F9
330
1004F
100
AcDbDictionary
280
     1
281
     1
  3
ACAD_XREC_ROUNDTRIP
360
1021B
  0
DICTIONARY
  5
1000D
330
1000C
100
AcDbDictionary
280
     1
281
     1
  3
BUMPTILE
360
1000F
  3
DIFFUSETILE
360
1000E
  3
OPACITYTILE
360
10012
  3
REFLECTIONTILE
360
10011
  3
REFRACTIONTILE
360
10013
  3
SPECULARTILE
360
10010
  0
DICTIONARY
  5
10005
330
10004
100
AcDbDictionary
280
     1
281
     1
  3
BUMPTILE
360
10007
  3
DIFFUSETILE
360
10006
  3
OPACITYTILE
360
1000A
  3
REFLECTIONTILE
360
10009
  3
REFRACTIONTILE
360
1000B
  3
SPECULARTILE
360
10008
  0
DICTIONARY
  5
10015
330
10014
100
AcDbDictionary
280
     1
281
     1
  3
BUMPTILE
360
10017
  3
DIFFUSETILE
360
10016
  3
OPACITYTILE
360
1001A
  3
REFLECTIONTILE
360
10019
  3
REFRACTIONTILE
360
1001B
  3
SPECULARTILE
360
10018
  0
DICTIONARY
  5
100FB
330
1006B
100
AcDbDictionary
280
     1
281
     1
  3
ACAD_XREC_ROUNDTRIP
360
1021C
  0
DICTIONARY
  5
100F7
330
1004D
100
AcDbDictionary
280
     1
281
     1
  3
ACAD_XREC_ROUNDTRIP
360
1021A
  0
DICTIONARY
  5
10218
330
10037
100
AcDbDictionary
280
     1
281
     1
  3
ACAD_ROUNDTRIP_2008_TABLESTYLE_CELLSTYLEMAP
360
10219
  0
XRECORD
  5
1021D
102
{ACAD_REACTORS
330
100FD
102
}
330
100FD
100
AcDbXrecord
280
     1
102
DISPLAYNAME
  1
Imperial24
102
FLAGS
 90
        0
  0
XRECORD
  5
1021B
102
{ACAD_REACTORS
330
100F9
102
}
330
100F9
100
AcDbXrecord
280
     1
102
DISPLAYNAME
  1
Metric50
102
FLAGS
 90
        0
  0
XRECORD
  5
1000F
102
{ACAD_REACTORS
330
1000D
102
}
330
1000D
100
AcDbXrecord
280
     1
270
     1
271
     1
  0
XRECORD
  5
1000E
102
{ACAD_REACTORS
330
1000D
102
}
330
1000D
100
AcDbXrecord
280
     1
270
     1
271
     1
  0
XRECORD
  5
10012
102
{ACAD_REACTORS
330
1000D
102
}
330
1000D
100
AcDbXrecord
280
     1
270
     1
271
     1
  0
XRECORD
  5
10011
102
{ACAD_REACTORS
330
1000D
102
}
330
1000D
100
AcDbXrecord
280
     1
270
     1
271
     1
  0
XRECORD
  5
10013
102
{ACAD_REACTORS
330
1000D
102
}
330
1000D
100
AcDbXrecord
280
     1
270
     1
271
     1
  0
XRECORD
  5
10010
102
{ACAD_REACTORS
330
1000D
102
}
330
1000D
100
AcDbXrecord
280
     1
270
     1
271
     1
  0
XRECORD
  5
10007
102
{ACAD_REACTORS
330
10005
102
}
330
10005
100
AcDbXrecord
280
     1
270
     1
271
     1
  0
XRECORD
  5
10006
102
{ACAD_REACTORS
330
10005
102
}
330
10005
100
AcDbXrecord
280
     1
270
     1
271
     1
  0
XRECORD
  5
1000A
102
{ACAD_REACTORS
330
10005
102
}
330
10005
100
AcDbXrecord
280
     1
270
     1
271
     1
  0
XRECORD
  5
10009
102
{ACAD_REACTORS
330
10005
102
}
330
10005
100
AcDbXrecord
280
     1
270
     1
271
     1
  0
XRECORD
  5
1000B
102
{ACAD_REACTORS
330
10005
102
}
330
10005
100
AcDbXrecord
280
     1
270
     1
271
     1
  0
XRECORD
  5
10008
102
{ACAD_REACTORS
330
10005
102
}
330
10005
100
AcDbXrecord
280
     1
270
     1
271
     1
  0
XRECORD
  5
10017
102
{ACAD_REACTORS
330
10015
102
}
330
10015
100
AcDbXrecord
280
     1
270
     1
271
     1
  0
XRECORD
  5
10016
102
{ACAD_REACTORS
330
10015
102
}
330
10015
100
AcDbXrecord
280
     1
270
     1
271
     1
  0
XRECORD
  5
1001A
102
{ACAD_REACTORS
330
10015
102
}
330
10015
100
AcDbXrecord
280
     1
270
     1
271
     1
  0
XRECORD
  5
10019
102
{ACAD_REACTORS
330
10015
102
}
330
10015
100
AcDbXrecord
280
     1
270
     1
271
     1
  0
XRECORD
  5
1001B
102
{ACAD_REACTORS
330
10015
102
}
330
10015
100
AcDbXrecord
280
     1
270
     1
271
     1
  0
XRECORD
  5
10018
102
{ACAD_REACTORS
330
10015
102
}
330
10015
100
AcDbXrecord
280
     1
270
     1
271
     1
  0
XRECORD
  5
1021C
102
{ACAD_REACTORS
330
100FB
102
}
330
100FB
100
AcDbXrecord
280
     1
102
DISPLAYNAME
  1
Imperial24
102
FLAGS
 90
        0
  0
XRECORD
  5
1021A
102
{ACAD_REACTORS
330
100F7
102
}
330
100F7
100
AcDbXrecord
280
     1
102
DISPLAYNAME
  1
Metric50
102
FLAGS
 90
        0
  0
CELLSTYLEMAP
  5
10219
102
{ACAD_REACTORS
330
10218
102
}
330
10218
100
AcDbCellStyleMap
 90
        3
300
CELLSTYLE
  1
TABLEFORMAT_BEGIN
 90
        5
170
     1
 91
        0
 92
    32768
 62
   257
 93
        1
300
CONTENTFORMAT
  1
CONTENTFORMAT_BEGIN
 90
        0
 91
        0
 92
      512
 93
        0
300

 40
0.0
140
1.0
 94
        5
 62
     0
340
11
144
6.0
309
CONTENTFORMAT_END
171
     1
301
MARGIN
  1
CELLMARGIN_BEGIN
 40
1.5
 40
1.5
 40
1.5
 40
1.5
 40
4.5
 40
4.5
309
CELLMARGIN_END
 94
        6
 95
        1
302
GRIDFORMAT
  1
GRIDFORMAT_BEGIN
 90
        0
 91
        1
 62
     0
 92
       -2
340
0
 93
        0
 40
1.125
309
GRIDFORMAT_END
 95
        2
302
GRIDFORMAT
  1
GRIDFORMAT_BEGIN
 90
        0
 91
        1
 62
     0
 92
       -2
340
0
 93
        0
 40
1.125
309
GRIDFORMAT_END
 95
        4
302
GRIDFORMAT
  1
GRIDFORMAT_BEGIN
 90
        0
 91
        1
 62
     0
 92
       -2
340
0
 93
        0
 40
1.125
309
GRIDFORMAT_END
 95
        8
302
GRIDFORMAT
  1
GRIDFORMAT_BEGIN
 90
        0
 91
        1
 62
     0
 92
       -2
340
0
 93
        0
 40
1.125
309
GRIDFORMAT_END
 95
       16
302
GRIDFORMAT
  1
GRIDFORMAT_BEGIN
 90
        0
 91
        1
 62
     0
 92
       -2
340
0
 93
        0
 40
1.125
309
GRIDFORMAT_END
 95
       32
302
GRIDFORMAT
  1
GRIDFORMAT_BEGIN
 90
        0
 91
        1
 62
     0
 92
       -2
340
0
 93
        0
 40
1.125
309
GRIDFORMAT_END
309
TABLEFORMAT_END
  1
CELLSTYLE_BEGIN
 90
        1
 91
        1
300
_TITLE
309
CELLSTYLE_END
300
CELLSTYLE
  1
TABLEFORMAT_BEGIN
 90
        5
170
     1
 91
        0
 92
        0
 62
   257
 93
        1
300
CONTENTFORMAT
  1
CONTENTFORMAT_BEGIN
 90
        0
 91
        0
 92
      512
 93
        0
300

 40
0.0
140
1.0
 94
        5
 62
     0
340
11
144
4.5
309
CONTENTFORMAT_END
171
     1
301
MARGIN
  1
CELLMARGIN_BEGIN
 40
1.5
 40
1.5
 40
1.5
 40
1.5
 40
4.5
 40
4.5
309
CELLMARGIN_END
 94
        6
 95
        1
302
GRIDFORMAT
  1
GRIDFORMAT_BEGIN
 90
        0
 91
        1
 62
     0
 92
       -2
340
0
 93
        0
 40
1.125
309
GRIDFORMAT_END
 95
        2
302
GRIDFORMAT
  1
GRIDFORMAT_BEGIN
 90
        0
 91
        1
 62
     0
 92
       -2
340
0
 93
        0
 40
1.125
309
GRIDFORMAT_END
 95
        4
302
GRIDFORMAT
  1
GRIDFORMAT_BEGIN
 90
        0
 91
        1
 62
     0
 92
       -2
340
0
 93
        0
 40
1.125
309
GRIDFORMAT_END
 95
        8
302
GRIDFORMAT
  1
GRIDFORMAT_BEGIN
 90
        0
 91
        1
 62
     0
 92
       -2
340
0
 93
        0
 40
1.125
309
GRIDFORMAT_END
 95
       16
302
GRIDFORMAT
  1
GRIDFORMAT_BEGIN
 90
        0
 91
        1
 62
     0
 92
       -2
340
0
 93
        0
 40
1.125
309
GRIDFORMAT_END
 95
       32
302
GRIDFORMAT
  1
GRIDFORMAT_BEGIN
 90
        0
 91
        1
 62
     0
 92
       -2
340
0
 93
        0
 40
1.125
309
GRIDFORMAT_END
309
TABLEFORMAT_END
  1
CELLSTYLE_BEGIN
 90
        2
 91
        1
300
_HEADER
309
CELLSTYLE_END
300
CELLSTYLE
  1
TABLEFORMAT_BEGIN
 90
        5
170
     1
 91
        0
 92
        0
 62
   257
 93
        1
300
CONTENTFORMAT
  1
CONTENTFORMAT_BEGIN
 90
        0
 91
        0
 92
      512
 93
        0
300

 40
0.0
140
1.0
 94
        2
 62
     0
340
11
144
4.5
309
CONTENTFORMAT_END
171
     1
301
MARGIN
  1
CELLMARGIN_BEGIN
 40
1.5
 40
1.5
 40
1.5
 40
1.5
 40
4.5
 40
4.5
309
CELLMARGIN_END
 94
        6
 95
        1
302
GRIDFORMAT
  1
GRIDFORMAT_BEGIN
 90
        0
 91
        1
 62
     0
 92
       -2
340
0
 93
        0
 40
1.125
309
GRIDFORMAT_END
 95
        2
302
GRIDFORMAT
  1
GRIDFORMAT_BEGIN
 90
        0
 91
        1
 62
     0
 92
       -2
340
0
 93
        0
 40
1.125
309
GRIDFORMAT_END
 95
        4
302
GRIDFORMAT
  1
GRIDFORMAT_BEGIN
 90
        0
 91
        1
 62
     0
 92
       -2
340
0
 93
        0
 40
1.125
309
GRIDFORMAT_END
 95
        8
302
GRIDFORMAT
  1
GRIDFORMAT_BEGIN
 90
        0
 91
        1
 62
     0
 92
       -2
340
0
 93
        0
 40
1.125
309
GRIDFORMAT_END
 95
       16
302
GRIDFORMAT
  1
GRIDFORMAT_BEGIN
 90
        0
 91
        1
 62
     0
 92
       -2
340
0
 93
        0
 40
1.125
309
GRIDFORMAT_END
 95
       32
302
GRIDFORMAT
  1
GRIDFORMAT_BEGIN
 90
        0
 91
        1
 62
     0
 92
       -2
340
0
 93
        0
 40
1.125
309
GRIDFORMAT_END
309
TABLEFORMAT_END
  1
CELLSTYLE_BEGIN
 90
        3
 91
        2
300
_DATA
309
CELLSTYLE_END
  0
ENDSEC
  0
SECTION
  2
ACDSDATA
 70
     2
 71
     6
  0
ACDSSCHEMA
 90
        0
  1
AcDb_Thumbnail_Schema
  2
AcDbDs::ID
280
    10
 91
        8
  2
Thumbnail_Data
280
    15
 91
        0
101
ACDSRECORD
 95
        0
 90
        1
  2
AcDbDs::TreatedAsObjectData
280
     1
291
     1
101
ACDSRECORD
 95
        0
 90
        2
  2
AcDbDs::Legacy
280
     1
291
     1
101
ACDSRECORD
  1
AcDbDs::ID
 90
        3
  2
AcDs:Indexable
280
     1
291
     1
101
ACDSRECORD
  1
AcDbDs::ID
 90
        4
  2
AcDbDs::HandleAttribute
280
     7
282
     1
  0
ACDSSCHEMA
 90
        1
  1
AcDbDs::TreatedAsObjectDataSchema
  2
AcDbDs::TreatedAsObjectData
280
     1
 91
        0
  0
ACDSSCHEMA
 90
        2
  1
AcDbDs::LegacySchema
  2
AcDbDs::Legacy
280
     1
 91
        0
  0
ACDSSCHEMA
 90
        3
  1
AcDbDs::IndexedPropertySchema
  2
AcDs:Indexable
280
     1
 91
        0
  0
ACDSSCHEMA
 90
        4
  1
AcDbDs::HandleAttributeSchema
  2
AcDbDs::HandleAttribute
280
     7
 91
        1
284
     1
  0
ACDSRECORD
 90
        0
  2
AcDbDs::ID
280
    10
320
10052
  2
Thumbnail_Data
280
    15
 94
     2690
310
89504E470D0A1A0A0000000D4948445200000100000000B70803000000CA14702D00000300504C54452128300000000000000000000000000000000000000000000000000000000000000000330000660000990000CC0000FF0033000033330033660033990033CC0033FF0066000066330066660066990066CC0066FF0099
310
000099330099660099990099CC0099FF00CC0000CC3300CC6600CC9900CCCC00CCFF00FF0000FF3300FF6600FF9900FFCC00FFFF3300003300333300663300993300CC3300FF3333003333333333663333993333CC3333FF3366003366333366663366993366CC3366FF3399003399333399663399993399CC3399FF33CC00
310
33CC3333CC6633CC9933CCCC33CCFF33FF0033FF3333FF6633FF9933FFCC33FFFF6600006600336600666600996600CC6600FF6633006633336633666633996633CC6633FF6666006666336666666666996666CC6666FF6699006699336699666699996699CC6699FF66CC0066CC3366CC6666CC9966CCCC66CCFF66FF0066
310
FF3366FF6666FF9966FFCC66FFFF9900009900339900669900999900CC9900FF9933009933339933669933999933CC9933FF9966009966339966669966999966CC9966FF9999009999339999669999999999CC9999FF99CC0099CC3399CC6699CC9999CCCC99CCFF99FF0099FF3399FF6699FF9999FFCC99FFFFCC0000CC00
310
33CC0066CC0099CC00CCCC00FFCC3300CC3333CC3366CC3399CC33CCCC33FFCC6600CC6633CC6666CC6699CC66CCCC66FFCC9900CC9933CC9966CC9999CC99CCCC99FFCCCC00CCCC33CCCC66CCCC99CCCCCCCCCCFFCCFF00CCFF33CCFF66CCFF99CCFFCCCCFFFFFF0000FF0033FF0066FF0099FF00CCFF00FFFF3300FF3333
310
FF3366FF3399FF33CCFF33FFFF6600FF6633FF6666FF6699FF66CCFF66FFFF9900FF9933FF9966FF9999FF99CCFF99FFFFCC00FFCC33FFCC66FFCC99FFCCCCFFCCFFFFFF00FFFF33FFFF66FFFF99FFFFCCFFFFFF0000000D0D0D1A1A1A2828283535354343435050505D5D5D6B6B6B787878868686939393A1A1A1AEAEAEBB
310
BBBBC9C9C9D6D6D6E4E4E4F1F1F1FFFFFF000000000000000000000000000000000000000000000000000000000000544354A80000072A4944415478DAED9DDB76DC200C45F9FFFFDDEF5D6D9A643C03B6248E6498C40F5D493A03E858778468EDEBA1759EEE1FD77AE075D1FCFDA377ED58C65E1382C11F108DB32102BEE5
310
439F63B6A17F527C194A52DB1A01AA18686D3D10466033FA07006053E3EF00C0CB825DB690FDE9EF21E0A084FDE98FAAB27F42F20EF4C76D21651690CF67455B9849FF0BDD4948B01EFD57648A51888872A60130D226C4A06B0BCFC74F03C045960C833E0F506E0103046930C0CF8AE8E98F92A280C0EDD5EAE97F2403D323
310
856052A6D1BE7D7F28320F813C2E74CFFEF0525D00FCFF1E62002AE9FF26003F007C03284560362E7673FF09007D0790D77F9122608E8B91087F078067C28FBFF3FABD3908C2292ECDA447004E1DB18FFFEC01A05A4C15FD071A1F95A0271A7D826A82098261216A9E336B1EC85E503DFDFF4D9AD511EA63A55B52260088F6
310
D450EECD51487F6E2CA05996C51740453F2A65AA5CD7B52FA0A3FFD658E6E26BA8014848A7A852B4F8E26DD12439498D8A97C38D2B4D1A976DE9CF41406F0262DE56302C152C301D0093DB6FD513500A80627847B485FAFD1965601C99121B3C9AFBAACA9499C38B28FDCF891CFB7A1C9FE7305D0E02D300B88B101C5FD002
310
808803424B7303108239604CA2037FAE8A9605C0D7E834050223451D1EF72395632FC8FC56C41ECC9EB286B341B1907E1FFF1F3285E6B200FCD6231F00F7E6D727B9C73CB80D04846B1DB802E4D2CFEB66A9CB3346B758918BE502005B999A94E19201F0D11FCEDD8810209701987DFDA6CF4959A0520330C7A9292C309FC3
310
23837ECF50530008F2EE5677CE9B1DB4D7318911208501FABB3CDDB22013043A1678999C0C06B8DE2D726E05CA00789D9C0406784D7CF5767C3AE5546508B4E88399FE43AD039782C2455CB11B00872A1183AEE032B2420700350C604C6370F878060B2023DF06C053B208D3A05CC2A5920159FD1917B912ECC902BE74400E
310
023A00CC0CD04F960CFD002C490F15009430C0E5CCE39262A614904909202839A0F5DFE68814307B23F4B926CE022967A9E8F3ECE0E741361E03709D09570080E601C0C9D50300C23270E985EA0070D23FFA105A0064A7825C00188B7EB172830C8089B3493100300E5A0680CA08627B89F6B4F739FBD0445A7039007A6513
310
5CFA55CC8800F9007836B3EC03C9CC400C832C003A2C900DC06CC5CD60C79253B68EC9C0A60038B773310CA0058022009CA523550030EB095F01E0DECFC73694CA139A36835600686900DCE008D02E00084B8069089A4A067E3C009A587067008218BC1500931567BF00EC0E00CB8BC0E0075538986305F2FD807BCDE05A8E
310
D01D29A17D5D61CFE9A9DF60E8371C5E2121B27A46E8C7A7C4764F8A6AA2A18DD3E21A3BF8F3364652B6C6D8686B2CBC398A59AC2A0068459BA3BE82A2E2ED718A0B242C8D2E4B0B24040D097C2532D76BD8A244E6F80ABC4552A789496791D49C048800702B5CBE8F0F9EB547482E939BEA68EDD16B8333FFDDD94B0B25DB
310
CCE328956D89A5B24BD70ABB4FD6535C2C9D5E2CFC542E8FA548AAB25CBE9520F0AE0726EC67A60E66EB3D8FCC5C15805E9466F51C88947373A4C1E96D4CF445F2F0E0602B6180E7DEAD292C306C933AF642CC4747670F4E4E8A835919CD4BAA847EF5D1D9DFC3D31E041C17FEB51A0650F4ABF4ACC6D83B0F070DFA5B2453
310
1158B187084A00ACBEFE0C8F6437514966815322DD8D8426FB08A98203B75202636620A0C57D2A50D148E9317981AF9516EEA4CC31A0CC69A535D34CCDD34CEEC2133C0B2A729BA995B5D38BC55EC2767A6A04667A3D4600486BA858D55253007340822C76871B98D32D68CF892695119C42C0D95637C6BF0F6D759D68DB93
310
0ED98DAB23C33312872800A7B77C16B5968E33AFBD2B4BEC159535579F1CDBA5043D4EE40F68AFBF1302375CB020BB622341FD15DD7FB2CC252399B7275B3BF6DDB05CFD80B3B7AFAABDCD28FB0B2F5ACAB9696AA3ABB6223C135EF68697ADA55CB7E7C9942897143324FA0B17A7A82FBF70B1699597990D42BBA57EBD948C
310
C038DB74BA217CA29911AFA5EEDADD31A9C70B16203A5A5022B311306D83D9D2C2B2522ED7AC0A374E120D69EF9DF6E5D4B979F18A119C1B3FF2CC16DC0CA0F3ADA2CFED4D1CC910E0EF1E3523B9193C9696725FE71551D01210F09F4A41A440DDBA2DE1DED807EBA3FE64304143BB03001369E8881F5880C00CE23D8EF135
310
8FA09E2A2FC72100A177E97C2EFDF1FA95BC1DFFD427140476CFF6F02EF4472E83DC168199A40AED0D8460220892A6E3D6A1FFA527FD5B033050E4902C3CAB03608E4176B785735B2A83BBADD99A7E4561315BD39F515ABF28F9A34D7A410C043BBE7E9AEF46E8682A6161FA03EF8E4D7D426D8390AEE7C46EF4476B6A06C6
310
70690412E4762BB718BB24D75AD4BBCCDFBF0828038025CD214345869CFE159900972DF38D0AEBABC22CB7850FEA9757856431EA9917BD8E2238E150D6C637D3FBA30080259860585108B205A276338BB49F768F9515350125D2F9C54B2C260709F5FEA7332DA60ACE3799834BFA03C18558272CC77E1A0000000049454E44
310
AE42608265B3121F9198570000000049454E44AE426082
  0
ENDSEC
  0
EOF
